<svg width="310" height="69" viewBox="0 0 310 69" fill="none" xmlns="http://www.w3.org/2000/svg">
<path d="M1 23.4359H66M1 45.5641H66M44.2338 1V68M22.7662 1V68M29.073 50.5257V59.5797C29.0822 60.7837 29.5527 61.9351 30.382 62.783C31.2112 63.631 32.3319 64.1068 33.5 64.1068V64.1068C34.6711 64.1068 35.7945 63.6285 36.6242 62.7766C37.4539 61.9248 37.9224 60.7687 37.927 59.5616V50.5076M29.073 3.71622V12.7703C29.1006 13.9599 29.5797 15.091 30.4074 15.9205C31.2352 16.75 32.3455 17.2118 33.5 17.2068V17.2068C34.0805 17.2091 34.6558 17.0933 35.1928 16.866C35.7298 16.6386 36.218 16.3042 36.6293 15.8819C37.0406 15.4596 37.367 14.9578 37.5897 14.4052C37.8124 13.8525 37.927 13.26 37.927 12.6616V3.71622M16.2838 3.71622H10.7676C9.90665 3.7159 9.07963 4.06212 8.46272 4.6811C7.84581 5.30008 7.48776 6.1429 7.46487 7.03V7.03C7.46951 7.92974 7.81952 8.791 8.43839 9.42552C9.05727 10.06 9.89467 10.4162 10.7676 10.4162H11.8743M11.8743 10.4162H12.9986C13.4315 10.4162 13.8602 10.5044 14.2599 10.6757C14.6596 10.847 15.0225 11.098 15.3278 11.4144C15.6331 11.7308 15.8747 12.1062 16.0388 12.5191C16.2028 12.9321 16.2861 13.3743 16.2838 13.8205V13.8205C16.2838 14.7186 15.9377 15.5799 15.3216 16.215C14.7055 16.85 13.8699 17.2068 12.9986 17.2068H7.46487M8.60676 50.8516V64.4146M10.3108 57.6241L15.1595 50.8878M10.3108 57.6241L15.1595 64.4327M10.3108 57.6241H8.60676M59.5351 32.2546C59.5336 31.6365 59.4102 31.0252 59.1725 30.4578C58.9348 29.8904 58.5878 29.3786 58.1524 28.9536C57.7171 28.5286 57.2026 28.1991 56.64 27.9853C56.0774 27.7714 55.4785 27.6776 54.8797 27.7095C53.7197 27.8149 52.642 28.3714 51.8655 29.266C51.089 30.1606 50.6718 31.3262 50.6987 32.5262V36.7454C50.7033 37.9525 51.1718 39.1085 52.0015 39.9604C52.8312 40.8123 53.9546 41.2905 55.1257 41.2905V41.2905C56.2937 41.2858 57.4126 40.8054 58.2385 39.954C59.0645 39.1027 59.5305 37.9494 59.5351 36.7454V32.2546ZM29.0905 41.2905V27.7095H31.3216C33.0688 27.7095 34.7445 28.4249 35.9799 29.6984C37.2154 30.9718 37.9095 32.699 37.9095 34.5V34.5C37.9095 36.301 37.2154 38.0282 35.9799 39.3016C34.7445 40.5751 33.0688 41.2905 31.3216 41.2905H29.0905Z" stroke="#9747FF" stroke-width="2" stroke-linecap="round" stroke-linejoin="round"/>
<g filter="url(#filter0_d_104_5)">
<path d="M93.125 45.5C94.7708 45.5 96.1823 45.5677 97.3594 45.7031C98.5365 45.8385 99.526 46.0417 100.328 46.3125C101.141 46.5729 101.786 46.901 102.266 47.2969C102.745 47.6927 103.115 48.1458 103.375 48.6562C103.635 49.1562 103.802 49.7188 103.875 50.3438C103.958 50.9688 104 51.6458 104 52.375C104 53.1042 103.932 53.7917 103.797 54.4375C103.672 55.0729 103.443 55.6562 103.109 56.1875C102.776 56.7188 102.323 57.1927 101.75 57.6094C101.177 58.026 100.448 58.3802 99.5625 58.6719C98.6771 58.9635 97.6094 59.1823 96.3594 59.3281C95.1198 59.4844 93.6667 59.5625 92 59.5625H88C86.5 59.5625 85.1875 59.5052 84.0625 59.3906C82.9375 59.276 81.9688 59.1042 81.1562 58.875C80.3438 58.6354 79.6719 58.3385 79.1406 57.9844C78.6094 57.6198 78.1823 57.1979 77.8594 56.7188C77.5469 56.2292 77.3281 55.6771 77.2031 55.0625C77.0781 54.4375 77.0156 53.75 77.0156 53H80.0156C80.0156 53.9375 80.151 54.6719 80.4219 55.2031C80.6927 55.7344 81.1406 56.1354 81.7656 56.4062C82.3906 56.6667 83.2083 56.8333 84.2188 56.9062C85.2396 56.9688 86.5 57 88 57H92C93.75 57 95.2031 56.9167 96.3594 56.75C97.5156 56.5833 98.4375 56.3177 99.125 55.9531C99.8125 55.5885 100.297 55.1146 100.578 54.5312C100.859 53.9375 101 53.2188 101 52.375C101 51.5312 100.901 50.8281 100.703 50.2656C100.516 49.7031 100.135 49.2552 99.5625 48.9219C99 48.5885 98.2031 48.3542 97.1719 48.2188C96.1406 48.0729 94.7917 48 93.125 48H89C87.1667 48 85.5938 47.9323 84.2812 47.7969C82.9792 47.6615 81.8854 47.4688 81 47.2188C80.1146 46.9583 79.4062 46.6406 78.875 46.2656C78.3438 45.8802 77.9375 45.4427 77.6562 44.9531C77.3854 44.4635 77.2083 43.9219 77.125 43.3281C77.0417 42.724 77 42.0729 77 41.375C77 40.6458 77.0625 39.9688 77.1875 39.3438C77.3229 38.7188 77.5677 38.1562 77.9219 37.6562C78.276 37.1458 78.7604 36.6927 79.375 36.2969C79.9896 35.901 80.776 35.5729 81.7344 35.3125C82.7031 35.0417 83.8646 34.8385 85.2188 34.7031C86.5729 34.5677 88.1667 34.5 90 34.5H93C94.5 34.5 95.8125 34.5573 96.9375 34.6719C98.0625 34.776 99.0312 34.9479 99.8438 35.1875C100.656 35.4167 101.328 35.7083 101.859 36.0625C102.401 36.4062 102.828 36.8229 103.141 37.3125C103.464 37.7917 103.688 38.3385 103.812 38.9531C103.938 39.5677 104 40.25 104 41H101C101 40.0625 100.865 39.3281 100.594 38.7969C100.323 38.2656 99.875 37.8698 99.25 37.6094C98.625 37.3385 97.8021 37.1719 96.7812 37.1094C95.7604 37.0365 94.5 37 93 37H90C88 37 86.3542 37.0729 85.0625 37.2188C83.7708 37.3542 82.75 37.5885 82 37.9219C81.25 38.2552 80.7292 38.7031 80.4375 39.2656C80.1458 39.8281 80 40.5312 80 41.375C80 41.8958 80.0365 42.3594 80.1094 42.7656C80.1823 43.1719 80.3281 43.5312 80.5469 43.8438C80.776 44.1458 81.0938 44.401 81.5 44.6094C81.9062 44.8177 82.4427 44.9896 83.1094 45.125C83.776 45.2604 84.5885 45.3594 85.5469 45.4219C86.5156 45.474 87.6667 45.5 89 45.5H93.125ZM111.016 41V51C111.016 52.1146 111.099 53.0573 111.266 53.8281C111.432 54.5885 111.766 55.2031 112.266 55.6719C112.766 56.1406 113.474 56.4792 114.391 56.6875C115.307 56.8958 116.516 57 118.016 57C119.641 57 120.969 56.8802 122 56.6406C123.042 56.401 123.859 56.0625 124.453 55.625C125.047 55.1875 125.453 54.6615 125.672 54.0469C125.901 53.4323 126.016 52.75 126.016 52V41H129.016V59H126.016V56C125.87 56.3229 125.625 56.6823 125.281 57.0781C124.938 57.4635 124.422 57.8229 123.734 58.1562C123.047 58.4896 122.156 58.7708 121.062 59C119.979 59.2292 118.63 59.3438 117.016 59.3438C115.672 59.3438 114.516 59.2604 113.547 59.0938C112.589 58.9375 111.771 58.7031 111.094 58.3906C110.427 58.0677 109.891 57.6719 109.484 57.2031C109.078 56.7344 108.766 56.1927 108.547 55.5781C108.328 54.9531 108.182 54.2604 108.109 53.5C108.036 52.7396 108 51.9062 108 51L108.016 41H111.016ZM143.531 59.3438C141.531 59.3438 139.833 59.1979 138.438 58.9062C137.042 58.6146 135.906 58.1146 135.031 57.4062C134.156 56.6979 133.521 55.7448 133.125 54.5469C132.729 53.349 132.531 51.8438 132.531 50.0312C132.531 48.1562 132.729 46.6042 133.125 45.375C133.521 44.1458 134.156 43.1719 135.031 42.4531C135.906 41.7344 137.042 41.2292 138.438 40.9375C139.833 40.6458 141.531 40.5 143.531 40.5C144.948 40.5 146.135 40.5729 147.094 40.7188C148.052 40.8646 148.833 41.0469 149.438 41.2656C150.052 41.4844 150.516 41.724 150.828 41.9844C151.151 42.2344 151.385 42.4688 151.531 42.6875V35H154.531V59H151.531V56.3281C151.531 56.3281 151.281 56.625 150.781 57.2188C150.344 57.6458 149.859 57.9896 149.328 58.25C148.797 58.5104 148.052 58.7604 147.094 59C146.135 59.2292 144.948 59.3438 143.531 59.3438ZM143.531 57C144.531 57 145.422 56.9792 146.203 56.9375C146.984 56.8854 147.672 56.7812 148.266 56.625C148.859 56.4688 149.359 56.2396 149.766 55.9375C150.182 55.625 150.521 55.2135 150.781 54.7031C151.042 54.1927 151.229 53.5625 151.344 52.8125C151.469 52.0521 151.531 51.1406 151.531 50.0781C151.531 48.974 151.469 48.0365 151.344 47.2656C151.229 46.4844 151.042 45.8333 150.781 45.3125C150.521 44.7812 150.182 44.3646 149.766 44.0625C149.359 43.7604 148.859 43.5312 148.266 43.375C147.672 43.2083 146.984 43.1042 146.203 43.0625C145.422 43.0208 144.531 43 143.531 43C142.365 43 141.354 43.0365 140.5 43.1094C139.656 43.1823 138.938 43.3125 138.344 43.5C137.75 43.6875 137.266 43.9479 136.891 44.2812C136.526 44.6146 136.24 45.0417 136.031 45.5625C135.833 46.0833 135.698 46.7135 135.625 47.4531C135.562 48.1823 135.531 49.0417 135.531 50.0312C135.531 51.0104 135.562 51.8646 135.625 52.5938C135.698 53.3125 135.833 53.9323 136.031 54.4531C136.24 54.9635 136.526 55.3854 136.891 55.7188C137.266 56.0521 137.75 56.3125 138.344 56.5C138.938 56.6875 139.656 56.8177 140.5 56.8906C141.354 56.9635 142.365 57 143.531 57ZM158.031 49.875C158.031 48.0312 158.229 46.5052 158.625 45.2969C159.021 44.0885 159.656 43.1302 160.531 42.4219C161.406 41.7135 162.542 41.2188 163.938 40.9375C165.333 40.6458 167.031 40.5 169.031 40.5C171.031 40.5 172.729 40.6458 174.125 40.9375C175.521 41.2188 176.656 41.7135 177.531 42.4219C178.406 43.1302 179.042 44.0885 179.438 45.2969C179.833 46.5052 180.031 48.0312 180.031 49.875C180.031 51.7188 179.833 53.25 179.438 54.4688C179.042 55.6875 178.406 56.6562 177.531 57.375C176.656 58.0938 175.521 58.6042 174.125 58.9062C172.729 59.1979 171.031 59.3438 169.031 59.3438C167.031 59.3438 165.333 59.1979 163.938 58.9062C162.542 58.6042 161.406 58.0938 160.531 57.375C159.656 56.6562 159.021 55.6875 158.625 54.4688C158.229 53.25 158.031 51.7188 158.031 49.875ZM161.031 49.875C161.031 50.875 161.068 51.7448 161.141 52.4844C161.214 53.224 161.349 53.8594 161.547 54.3906C161.755 54.9219 162.042 55.3542 162.406 55.6875C162.771 56.0208 163.25 56.2865 163.844 56.4844C164.438 56.6823 165.156 56.8177 166 56.8906C166.854 56.9635 167.865 57 169.031 57C170.031 57 170.922 56.9792 171.703 56.9375C172.495 56.8854 173.182 56.776 173.766 56.6094C174.359 56.4427 174.865 56.2083 175.281 55.9062C175.698 55.5938 176.031 55.1719 176.281 54.6406C176.542 54.1094 176.729 53.4583 176.844 52.6875C176.969 51.9062 177.031 50.9688 177.031 49.875C177.031 48.8021 176.969 47.8906 176.844 47.1406C176.729 46.3802 176.542 45.7448 176.281 45.2344C176.031 44.724 175.698 44.3229 175.281 44.0312C174.865 43.7292 174.359 43.5052 173.766 43.3594C173.182 43.2031 172.495 43.1042 171.703 43.0625C170.922 43.0208 170.031 43 169.031 43C168.031 43 167.135 43.0208 166.344 43.0625C165.562 43.1042 164.875 43.2031 164.281 43.3594C163.698 43.5052 163.198 43.7292 162.781 44.0312C162.365 44.3229 162.026 44.724 161.766 45.2344C161.516 45.7448 161.328 46.3802 161.203 47.1406C161.089 47.8906 161.031 48.8021 161.031 49.875ZM183.531 35H186.531V48.125H187.531L198.531 41H203.031L190.281 49.375L203.531 59H199.031L187.531 50.375H186.531V59H183.531V35ZM208.547 41V51C208.547 52.1146 208.63 53.0573 208.797 53.8281C208.964 54.5885 209.297 55.2031 209.797 55.6719C210.297 56.1406 211.005 56.4792 211.922 56.6875C212.839 56.8958 214.047 57 215.547 57C217.172 57 218.5 56.8802 219.531 56.6406C220.573 56.401 221.391 56.0625 221.984 55.625C222.578 55.1875 222.984 54.6615 223.203 54.0469C223.432 53.4323 223.547 52.75 223.547 52V41H226.547V59H223.547V56C223.401 56.3229 223.156 56.6823 222.812 57.0781C222.469 57.4635 221.953 57.8229 221.266 58.1562C220.578 58.4896 219.688 58.7708 218.594 59C217.51 59.2292 216.161 59.3438 214.547 59.3438C213.203 59.3438 212.047 59.2604 211.078 59.0938C210.12 58.9375 209.302 58.7031 208.625 58.3906C207.958 58.0677 207.422 57.6719 207.016 57.2031C206.609 56.7344 206.297 56.1927 206.078 55.5781C205.859 54.9531 205.714 54.2604 205.641 53.5C205.568 52.7396 205.531 51.9062 205.531 51L205.547 41H208.547Z" fill="black"/>
<path d="M234.562 37V59H231.562V35H236.562L250.547 56L264.531 35H269.312V59H266.312V37.3281L252.062 59H249.031L234.562 37ZM291.203 46.3438L305.312 59H301.062L289.109 48.2812L277.562 59H273.312L286.953 46.3438L274.312 35H278.562L289.031 44.4062L299.172 35H303.422L291.203 46.3438Z" fill="#9C0EA8"/>
<path d="M100.328 46.3125L100.008 47.2599L100.016 47.2624L100.023 47.2648L100.328 46.3125ZM103.375 48.6562L102.484 49.1107L102.488 49.1182L103.375 48.6562ZM103.875 50.3438L102.882 50.4596L102.883 50.4678L102.884 50.4759L103.875 50.3438ZM103.797 54.4375L102.818 54.2323L102.816 54.2445L103.797 54.4375ZM96.3594 59.3281L96.2435 58.3348L96.2343 58.336L96.3594 59.3281ZM81.1562 58.875L80.8734 59.8342L80.8848 59.8374L81.1562 58.875ZM79.1406 57.9844L78.5747 58.809L78.5859 58.8164L79.1406 57.9844ZM77.8594 56.7188L77.0165 57.2568L77.0232 57.2673L77.0301 57.2776L77.8594 56.7188ZM77.2031 55.0625L76.2225 55.2586L76.2232 55.2618L77.2031 55.0625ZM77.0156 53V52H76.0156V53H77.0156ZM80.0156 53H81.0156V52H80.0156V53ZM81.7656 56.4062L81.368 57.3239L81.381 57.3293L81.7656 56.4062ZM84.2188 56.9062L84.1468 57.9037L84.1576 57.9044L84.2188 56.9062ZM100.578 54.5312L101.479 54.9656L101.482 54.9593L100.578 54.5312ZM100.703 50.2656L99.7544 50.5819L99.7571 50.5897L99.7598 50.5975L100.703 50.2656ZM99.5625 48.9219L99.0527 49.7822L99.0596 49.7862L99.5625 48.9219ZM97.1719 48.2188L97.0318 49.2089L97.0417 49.2102L97.1719 48.2188ZM84.2812 47.7969L84.1778 48.7915L84.1786 48.7916L84.2812 47.7969ZM81 47.2188L80.7178 48.1782L80.7283 48.1811L81 47.2188ZM78.875 46.2656L78.2877 47.0751L78.2983 47.0826L78.875 46.2656ZM77.6562 44.9531L76.7812 45.4372L76.7851 45.4442L76.7891 45.4512L77.6562 44.9531ZM77.125 43.3281L76.1344 43.4648L76.1347 43.4671L77.125 43.3281ZM77.1875 39.3438L76.2102 39.132L76.2085 39.1398L76.2069 39.1476L77.1875 39.3438ZM77.9219 37.6562L78.7379 38.2343L78.7435 38.2263L77.9219 37.6562ZM81.7344 35.3125L81.9966 36.2775L82.0036 36.2756L81.7344 35.3125ZM96.9375 34.6719L96.8362 35.6668L96.8453 35.6676L96.9375 34.6719ZM99.8438 35.1875L99.5609 36.1467L99.5723 36.1499L99.8438 35.1875ZM101.859 36.0625L101.305 36.8946L101.314 36.9008L101.324 36.9068L101.859 36.0625ZM103.141 37.3125L102.298 37.8505L102.304 37.861L102.311 37.8714L103.141 37.3125ZM104 41V42H105V41H104ZM101 41H100V42H101V41ZM99.25 37.6094L98.8524 38.527L98.8654 38.5325L99.25 37.6094ZM96.7812 37.1094L96.71 38.1069L96.7201 38.1075L96.7812 37.1094ZM85.0625 37.2188L85.1668 38.2133L85.1747 38.2124L85.0625 37.2188ZM80.5469 43.8438L79.7276 44.4172L79.7386 44.4329L79.7502 44.4481L80.5469 43.8438ZM85.5469 45.4219L85.4818 46.4198L85.4932 46.4204L85.5469 45.4219ZM93.125 46.5C94.7461 46.5 96.1173 46.5668 97.2451 46.6966L97.4737 44.7097C96.2473 44.5686 94.7955 44.5 93.125 44.5V46.5ZM97.2451 46.6966C98.3776 46.8269 99.2934 47.0186 100.008 47.2599L100.648 45.3651C99.7587 45.0648 98.6953 44.8502 97.4737 44.7097L97.2451 46.6966ZM100.023 47.2648C100.756 47.4999 101.277 47.7771 101.629 48.0678L102.903 46.5259C102.296 46.025 101.525 45.6459 100.633 45.3602L100.023 47.2648ZM101.629 48.0678C102.012 48.3841 102.291 48.732 102.484 49.1107L104.266 48.2018C103.938 47.5596 103.478 47.0013 102.903 46.5259L101.629 48.0678ZM102.488 49.1182C102.686 49.4984 102.821 49.9415 102.882 50.4596L104.868 50.2279C104.783 49.496 104.585 48.8141 104.262 48.1943L102.488 49.1182ZM102.884 50.4759C102.96 51.051 103 51.6834 103 52.375H105C105 51.6083 104.956 50.8865 104.866 50.2116L102.884 50.4759ZM103 52.375C103 53.0423 102.938 53.6606 102.818 54.2323L104.776 54.6427C104.927 53.9228 105 53.166 105 52.375H103ZM102.816 54.2445C102.714 54.7638 102.528 55.2318 102.262 55.656L103.956 56.719C104.357 56.0807 104.63 55.382 104.778 54.6305L102.816 54.2445ZM102.262 55.656C102.005 56.0661 101.645 56.4494 101.162 56.8006L102.338 58.4181C103.001 57.9361 103.547 57.3714 103.956 56.719L102.262 55.656ZM101.162 56.8006C100.695 57.1405 100.066 57.4532 99.2496 57.7221L99.8754 59.6217C100.83 59.3072 101.66 58.9116 102.338 58.4181L101.162 56.8006ZM99.2496 57.7221C98.446 57.9868 97.4481 58.1943 96.2435 58.3349L96.4753 60.3214C97.7706 60.1703 98.9081 59.9403 99.8754 59.6217L99.2496 57.7221ZM96.2343 58.336C95.0473 58.4856 93.6377 58.5625 92 58.5625V60.5625C93.6956 60.5625 95.1923 60.4831 96.4844 60.3203L96.2343 58.336ZM92 58.5625H88V60.5625H92V58.5625ZM88 58.5625C86.5237 58.5625 85.2464 58.506 84.1638 58.3958L83.9612 60.3855C85.1286 60.5044 86.4763 60.5625 88 60.5625V58.5625ZM84.1638 58.3958C83.0784 58.2852 82.1695 58.1218 81.4277 57.9126L80.8848 59.8374C81.768 60.0866 82.7966 60.2669 83.9612 60.3855L84.1638 58.3958ZM81.4391 57.9158C80.6936 57.696 80.1206 57.4359 79.6953 57.1523L78.5859 58.8164C79.2231 59.2412 79.9939 59.5748 80.8734 59.8342L81.4391 57.9158ZM79.7065 57.1599C79.267 56.8583 78.9336 56.5234 78.6886 56.1599L77.0301 57.2776C77.431 57.8725 77.9517 58.3813 78.5748 58.8089L79.7065 57.1599ZM78.7023 56.1807C78.461 55.8027 78.2855 55.3671 78.1831 54.8632L76.2232 55.2618C76.3707 55.9871 76.6328 56.6557 77.0165 57.2568L78.7023 56.1807ZM78.1837 54.8664C78.0736 54.3161 78.0156 53.6954 78.0156 53H76.0156C76.0156 53.8046 76.0826 54.5589 76.2225 55.2586L78.1837 54.8664ZM77.0156 54H80.0156V52H77.0156V54ZM79.0156 53C79.0156 54.0141 79.1589 54.9275 79.531 55.6573L81.3128 54.7489C81.1432 54.4163 81.0156 53.8609 81.0156 53H79.0156ZM79.531 55.6573C79.9222 56.4248 80.5618 56.9744 81.368 57.3238L82.1632 55.4887C81.7194 55.2964 81.4632 55.0439 81.3128 54.7489L79.531 55.6573ZM81.381 57.3293C82.1419 57.6463 83.0767 57.8264 84.1468 57.9037L84.2907 55.9088C83.3399 55.8402 82.6394 55.687 82.1502 55.4832L81.381 57.3293ZM84.1576 57.9044C85.2058 57.9686 86.4881 58 88 58V56C86.5119 56 85.2734 55.9689 84.2799 55.9081L84.1576 57.9044ZM88 58H92V56H88V58ZM92 58C93.7767 58 95.2815 57.9157 96.502 57.7398L96.2167 55.7602C95.1247 55.9176 93.7233 56 92 56V58ZM96.502 57.7398C97.7209 57.5641 98.7668 57.275 99.5935 56.8366L98.6565 55.0697C98.1082 55.3604 97.3104 55.6026 96.2167 55.7602L96.502 57.7398ZM99.5935 56.8366C100.43 56.3928 101.088 55.7771 101.479 54.9655L99.6774 54.097C99.5061 54.4521 99.1947 54.7843 98.6565 55.0697L99.5935 56.8366ZM101.482 54.9593C101.842 54.1994 102 53.3262 102 52.375H100C100 53.1113 99.8769 53.6756 99.6744 54.1032L101.482 54.9593ZM102 52.375C102 51.4613 101.894 50.6371 101.646 49.9337L99.7598 50.5975C99.9082 51.0192 100 51.6012 100 52.375H102ZM101.652 49.9494C101.378 49.1284 100.822 48.4978 100.065 48.0575L99.0596 49.7862C99.4488 50.0127 99.6531 50.2778 99.7544 50.5819L101.652 49.9494ZM100.072 48.0616C99.345 47.6306 98.3972 47.3711 97.3021 47.2273L97.0417 49.2102C98.009 49.3373 98.655 49.5465 99.0527 49.7822L100.072 48.0616ZM97.3119 47.2286C96.2152 47.0735 94.8143 47 93.125 47V49C94.769 49 96.066 49.0723 97.0319 49.2089L97.3119 47.2286ZM93.125 47H89V49H93.125V47ZM89 47C87.1888 47 85.6521 46.933 84.3839 46.8022L84.1786 48.7916C85.5354 48.9316 87.1445 49 89 49V47ZM84.3847 46.8022C83.1178 46.6705 82.0844 46.4858 81.2717 46.2564L80.7283 48.1811C81.6864 48.4517 82.8405 48.6524 84.1778 48.7915L84.3847 46.8022ZM81.2822 46.2594C80.4616 46.018 79.8643 45.7399 79.4517 45.4487L78.2983 47.0826C78.9482 47.5414 79.7676 47.8986 80.7178 48.1781L81.2822 46.2594ZM79.4622 45.4562C79.0268 45.1403 78.7238 44.8039 78.5234 44.455L76.7891 45.4512C77.1512 46.0815 77.6607 46.6201 78.2878 47.075L79.4622 45.4562ZM78.5313 44.4691C78.3238 44.0939 78.1829 43.6705 78.1153 43.1891L76.1347 43.4671C76.2338 44.1732 76.4471 44.8331 76.7812 45.4372L78.5313 44.4691ZM78.1156 43.1915C78.0393 42.6385 78 42.0336 78 41.375H76C76 42.1122 76.044 42.8094 76.1344 43.4648L78.1156 43.1915ZM78 41.375C78 40.7025 78.0577 40.0918 78.1681 39.5399L76.2069 39.1476C76.0673 39.8457 76 40.5892 76 41.375H78ZM78.1648 39.5555C78.273 39.0563 78.465 38.6195 78.7379 38.2343L77.1059 37.0782C76.6704 37.693 76.3729 38.3812 76.2102 39.132L78.1648 39.5555ZM78.7435 38.2263C79.0109 37.8409 79.3929 37.4748 79.9165 37.1376L78.8335 35.4562C78.1279 35.9106 77.5412 36.4508 77.1003 37.0862L78.7435 38.2263ZM79.9165 37.1376C80.4203 36.8131 81.1043 36.52 81.9966 36.2775L81.4721 34.3475C80.4478 34.6258 79.5589 34.989 78.8335 35.4562L79.9165 37.1376ZM82.0036 36.2756C82.9013 36.0246 84.0029 35.8297 85.3183 35.6982L85.1192 33.7081C83.7263 33.8474 82.5049 34.0587 81.4651 34.3494L82.0036 36.2756ZM85.3183 35.6982C86.6303 35.567 88.1893 35.5 90 35.5V33.5C88.144 33.5 86.5156 33.5685 85.1192 33.7081L85.3183 35.6982ZM90 35.5H93V33.5H90V35.5ZM93 35.5C94.4763 35.5 95.7536 35.5565 96.8362 35.6667L97.0388 33.677C95.8714 33.5581 94.5237 33.5 93 33.5V35.5ZM96.8453 35.6676C97.9257 35.7676 98.8273 35.9303 99.5609 36.1467L100.127 34.2283C99.2352 33.9655 98.1993 33.7844 97.0297 33.6761L96.8453 35.6676ZM99.5723 36.1499C100.315 36.3593 100.883 36.6136 101.305 36.8946L102.414 35.2304C101.773 34.803 100.998 34.474 100.115 34.2251L99.5723 36.1499ZM101.324 36.9068C101.755 37.1805 102.072 37.4967 102.298 37.8505L103.984 36.7745C103.584 36.1492 103.047 35.632 102.395 35.2182L101.324 36.9068ZM102.311 37.8714C102.555 38.2327 102.731 38.6554 102.833 39.1524L104.792 38.7538C104.644 38.0217 104.372 37.3506 103.97 36.7536L102.311 37.8714ZM102.833 39.1524C102.942 39.6902 103 40.3044 103 41H105C105 40.1956 104.933 39.4453 104.792 38.7538L102.833 39.1524ZM104 40H101V42H104V40ZM102 41C102 39.9859 101.857 39.0725 101.485 38.3427L99.7028 39.2511C99.8724 39.5837 100 40.1391 100 41H102ZM101.485 38.3427C101.091 37.5714 100.447 37.0248 99.6346 36.6863L98.8654 38.5325C99.3029 38.7147 99.5544 38.9598 99.7028 39.2511L101.485 38.3427ZM99.6476 36.6918C98.8766 36.3577 97.9269 36.1776 96.8424 36.1112L96.7201 38.1075C97.6773 38.1661 98.3734 38.3193 98.8524 38.5269L99.6476 36.6918ZM96.8525 36.1119C95.7998 36.0367 94.5139 36 93 36V38C94.4861 38 95.721 38.0362 96.71 38.1068L96.8525 36.1119ZM93 36H90V38H93V36ZM90 36C87.9801 36 86.2934 36.0734 84.9503 36.2251L85.1747 38.2124C86.4149 38.0724 88.0199 38 90 38V36ZM84.9582 36.2242C83.6156 36.365 82.4787 36.6148 81.5939 37.0081L82.4061 38.8357C83.0213 38.5623 83.9261 38.3434 85.1668 38.2133L84.9582 36.2242ZM81.5939 37.0081C80.6984 37.406 79.9733 37.9885 79.5497 38.8053L81.3253 39.7259C81.4851 39.4177 81.8016 39.1044 82.4061 38.8357L81.5939 37.0081ZM79.5497 38.8053C79.164 39.5493 79 40.422 79 41.375H81C81 40.6405 81.1277 40.107 81.3253 39.7259L79.5497 38.8053ZM79 41.375C79 41.9405 79.0394 42.4649 79.1251 42.9423L81.0936 42.589C81.0335 42.2538 81 41.8512 81 41.375H79ZM79.1251 42.9423C79.2215 43.4793 79.4191 43.9765 79.7276 44.4172L81.3661 43.2703C81.2371 43.086 81.1431 42.8644 81.0936 42.589L79.1251 42.9423ZM79.7502 44.4481C80.0866 44.8916 80.5309 45.2362 81.0437 45.4992L81.9563 43.7196C81.6566 43.5659 81.4655 43.4001 81.3436 43.2394L79.7502 44.4481ZM81.0437 45.4992C81.5604 45.7642 82.1934 45.9594 82.9103 46.105L83.3084 44.145C82.692 44.0198 82.2521 43.8712 81.9563 43.7196L81.0437 45.4992ZM82.9103 46.105C83.635 46.2522 84.4952 46.3554 85.4818 46.4198L85.612 44.424C84.6819 44.3633 83.917 44.2686 83.3084 44.145L82.9103 46.105ZM85.4932 46.4204C86.485 46.4738 87.6549 46.5 89 46.5V44.5C87.6785 44.5 86.5462 44.4742 85.6006 44.4233L85.4932 46.4204ZM89 46.5H93.125V44.5H89V46.5ZM111.016 41H112.016V40H111.016V41ZM111.266 53.8281L110.288 54.0395L110.289 54.0422L111.266 53.8281ZM122 56.6406L121.776 55.6661L121.774 55.6666L122 56.6406ZM125.672 54.0469L124.735 53.6975L124.732 53.7045L124.73 53.7116L125.672 54.0469ZM126.016 41V40H125.016V41H126.016ZM129.016 41H130.016V40H129.016V41ZM129.016 59V60H130.016V59H129.016ZM126.016 59H125.016V60H126.016V59ZM126.016 56H127.016L125.104 55.5884L126.016 56ZM125.281 57.0781L126.028 57.7438L126.036 57.7338L125.281 57.0781ZM123.734 58.1562L123.298 57.2564L123.734 58.1562ZM121.062 59L120.857 58.0213L120.856 58.0217L121.062 59ZM113.547 59.0938L113.716 58.1082L113.708 58.1068L113.547 59.0938ZM111.094 58.3906L110.658 59.2906L110.666 59.2947L110.675 59.2986L111.094 58.3906ZM108.547 55.5781L107.603 55.9085L107.605 55.9134L108.547 55.5781ZM108 51L107 50.9984V51H108ZM108.016 41V40H107.017L107.016 40.9984L108.016 41ZM110.016 41V51H112.016V41H110.016ZM110.016 51C110.016 52.159 110.102 53.1773 110.288 54.0395L112.243 53.6168C112.096 52.9373 112.016 52.0702 112.016 51H110.016ZM110.289 54.0422C110.493 54.9723 110.915 55.7762 111.582 56.4014L112.95 54.9423C112.617 54.6301 112.372 54.2047 112.242 53.614L110.289 54.0422ZM111.582 56.4014C112.251 57.0286 113.141 57.429 114.169 57.6626L114.612 55.7124C113.807 55.5294 113.281 55.2526 112.95 54.9423L111.582 56.4014ZM114.169 57.6626C115.188 57.8943 116.48 58 118.016 58V56C116.552 56 115.426 55.8974 114.612 55.7124L114.169 57.6626ZM118.016 58C119.681 58 121.093 57.8781 122.226 57.6147L121.774 55.6666C120.845 55.8823 119.6 56 118.016 56V58ZM122.224 57.6152C123.344 57.3576 124.305 56.9766 125.046 56.4301L123.86 54.8199C123.414 55.1484 122.739 55.4445 121.776 55.6661L122.224 57.6152ZM125.046 56.4301C125.779 55.8902 126.32 55.2085 126.614 54.3822L124.73 53.7116C124.586 54.1144 124.315 54.4848 123.86 54.8199L125.046 56.4301ZM126.609 54.3963C126.885 53.6551 127.016 52.8524 127.016 52H125.016C125.016 52.6476 124.917 53.2095 124.735 53.6975L126.609 54.3963ZM127.016 52V41H125.016V52H127.016ZM126.016 42H129.016V40H126.016V42ZM128.016 41V59H130.016V41H128.016ZM129.016 58H126.016V60H129.016V58ZM127.016 59V56H125.016V59H127.016ZM125.104 55.5884C125.013 55.7914 124.834 56.0683 124.526 56.4224L126.036 57.7338C126.416 57.2962 126.727 56.8545 126.927 56.4116L125.104 55.5884ZM124.535 56.4125C124.31 56.6653 123.919 56.9553 123.298 57.2564L124.171 59.0561C124.924 58.6906 125.565 58.2618 126.028 57.7437L124.535 56.4125ZM123.298 57.2564C122.709 57.5418 121.904 57.8019 120.857 58.0213L121.268 59.9787C122.408 59.7398 123.384 59.4373 124.171 59.0561L123.298 57.2564ZM120.856 58.0217C119.863 58.2315 118.589 58.3438 117.016 58.3438V60.3438C118.671 60.3438 120.095 60.2268 121.269 59.9783L120.856 58.0217ZM117.016 58.3438C115.71 58.3438 114.613 58.2625 113.716 58.1082L113.377 60.0793C114.418 60.2583 115.634 60.3438 117.016 60.3438V58.3438ZM113.708 58.1068C112.813 57.961 112.087 57.7479 111.513 57.4827L110.675 59.2986C111.454 59.6584 112.364 59.914 113.386 60.0807L113.708 58.1068ZM111.53 57.4906C110.962 57.2156 110.542 56.8965 110.24 56.5482L108.729 57.8581C109.239 58.4472 109.892 58.9198 110.658 59.2906L111.53 57.4906ZM110.24 56.5482C109.919 56.1783 109.668 55.7463 109.489 55.2428L107.605 55.9134C107.863 56.6391 108.237 57.2905 108.729 57.8581L110.24 56.5482ZM109.491 55.2478C109.302 54.7093 109.171 54.0968 109.105 53.4045L107.114 53.5955C107.193 54.424 107.354 55.197 107.603 55.9085L109.491 55.2478ZM109.105 53.4045C109.035 52.681 109 51.8801 109 51H107C107 51.9324 107.037 52.7981 107.114 53.5955L109.105 53.4045ZM109 51.0016L109.016 41.0016L107.016 40.9984L107 50.9984L109 51.0016ZM108.016 42H111.016V40H108.016V42ZM138.438 58.9062L138.233 59.8851L138.438 58.9062ZM133.125 54.5469L132.175 54.8606L133.125 54.5469ZM133.125 45.375L132.173 45.0685L133.125 45.375ZM149.438 41.2656L149.097 42.2059L149.102 42.2077L149.438 41.2656ZM150.828 41.9844L150.188 42.7526L150.202 42.7641L150.216 42.7751L150.828 41.9844ZM151.531 42.6875L150.699 43.2422L152.531 45.9903V42.6875H151.531ZM151.531 35V34H150.531V35H151.531ZM154.531 35H155.531V34H154.531V35ZM154.531 59V60H155.531V59H154.531ZM151.531 59H150.531V60H151.531V59ZM151.531 56.3281H152.531V53.5882L150.766 55.684L151.531 56.3281ZM150.781 57.2188L151.48 57.9343L151.515 57.9002L151.546 57.8629L150.781 57.2188ZM147.094 59L147.326 59.9726L147.336 59.9701L147.094 59ZM146.203 56.9375L146.256 57.9362L146.27 57.9353L146.203 56.9375ZM149.766 55.9375L150.362 56.74L150.366 56.7375L149.766 55.9375ZM151.344 52.8125L150.357 52.6503L150.355 52.6615L151.344 52.8125ZM151.344 47.2656L150.354 47.4107L150.355 47.4182L150.357 47.4257L151.344 47.2656ZM150.781 45.3125L149.883 45.7527L149.887 45.7597L150.781 45.3125ZM149.766 44.0625L149.169 44.865L149.179 44.8721L149.766 44.0625ZM148.266 43.375L147.995 44.3378L148.003 44.34L148.011 44.3421L148.266 43.375ZM140.5 43.1094L140.415 42.113L140.414 42.1131L140.5 43.1094ZM136.891 44.2812L136.226 43.5338L136.216 43.5432L136.891 44.2812ZM136.031 45.5625L135.103 45.1911L135.1 45.1992L135.096 45.2073L136.031 45.5625ZM135.625 47.4531L134.63 47.355L134.629 47.3677L135.625 47.4531ZM135.625 52.5938L134.629 52.6792L134.629 52.6869L134.63 52.6947L135.625 52.5938ZM136.031 54.4531L135.096 54.8083L135.101 54.8197L135.105 54.831L136.031 54.4531ZM136.891 55.7188L136.216 56.4569L136.226 56.4662L136.891 55.7188ZM140.5 56.8906L140.414 57.8869L140.415 57.887L140.5 56.8906ZM143.531 58.3438C141.575 58.3438 139.95 58.2007 138.642 57.9274L138.233 59.8851C139.717 60.1952 141.488 60.3438 143.531 60.3438V58.3438ZM138.642 57.9274C137.361 57.6598 136.383 57.2142 135.66 56.629L134.402 58.1835C135.429 59.0149 136.722 59.5694 138.233 59.8851L138.642 57.9274ZM135.66 56.629C134.952 56.0555 134.418 55.2717 134.075 54.2331L132.175 54.8606C132.624 56.2179 133.361 57.3404 134.402 58.1835L135.66 56.629ZM134.075 54.2331C133.723 53.1701 133.531 51.7796 133.531 50.0312H131.531C131.531 51.9079 131.735 53.5278 132.175 54.8606L134.075 54.2331ZM133.531 50.0312C133.531 48.2177 133.724 46.7779 134.077 45.6815L132.173 45.0685C131.735 46.4304 131.531 48.0948 131.531 50.0312H133.531ZM134.077 45.6815C134.422 44.6086 134.959 43.8064 135.666 43.2259L134.397 41.6804C133.353 42.5374 132.619 43.683 132.173 45.0685L134.077 45.6815ZM135.666 43.2259C136.388 42.6327 137.364 42.1834 138.642 41.9164L138.233 39.9586C136.719 40.2749 135.424 40.8361 134.397 41.6804L135.666 43.2259ZM138.642 41.9164C139.95 41.6431 141.575 41.5 143.531 41.5V39.5C141.488 39.5 139.717 39.6486 138.233 39.9586L138.642 41.9164ZM143.531 41.5C144.918 41.5 146.052 41.5717 146.943 41.7074L147.244 39.7301C146.219 39.5741 144.978 39.5 143.531 39.5V41.5ZM146.943 41.7074C147.866 41.8478 148.577 42.0176 149.097 42.2059L149.778 40.3254C149.09 40.0761 148.238 39.8814 147.244 39.7301L146.943 41.7074ZM149.102 42.2077C149.664 42.4079 150.004 42.5993 150.188 42.7526L151.468 41.2162C151.027 40.8486 150.44 40.5609 149.773 40.3235L149.102 42.2077ZM150.216 42.7751C150.495 42.9913 150.637 43.149 150.699 43.2422L152.363 42.1328C152.134 41.7885 151.807 41.4775 151.44 41.1937L150.216 42.7751ZM152.531 42.6875V35H150.531V42.6875H152.531ZM151.531 36H154.531V34H151.531V36ZM153.531 35V59H155.531V35H153.531ZM154.531 58H151.531V60H154.531V58ZM152.531 59V56.3281H150.531V59H152.531ZM151.531 56.3281C150.766 55.684 150.766 55.684 150.766 55.684C150.766 55.684 150.766 55.684 150.766 55.684C150.766 55.684 150.766 55.684 150.766 55.684C150.766 55.684 150.766 55.684 150.766 55.684C150.766 55.6841 150.766 55.6841 150.766 55.6841C150.766 55.6841 150.766 55.6841 150.766 55.6841C150.766 55.6841 150.766 55.6841 150.766 55.6842C150.766 55.6842 150.766 55.6842 150.766 55.6842C150.766 55.6842 150.766 55.6842 150.766 55.6843C150.766 55.6843 150.766 55.6843 150.766 55.6843C150.766 55.6844 150.766 55.6844 150.766 55.6844C150.766 55.6844 150.766 55.6845 150.766 55.6845C150.766 55.6845 150.766 55.6845 150.766 55.6846C150.766 55.6846 150.766 55.6846 150.766 55.6847C150.766 55.6847 150.766 55.6847 150.766 55.6848C150.766 55.6848 150.766 55.6848 150.766 55.6849C150.766 55.6849 150.766 55.6849 150.766 55.685C150.765 55.685 150.765 55.685 150.765 55.6851C150.765 55.6851 150.765 55.6852 150.765 55.6852C150.765 55.6853 150.765 55.6853 150.765 55.6853C150.765 55.6854 150.765 55.6854 150.765 55.6855C150.765 55.6855 150.765 55.6856 150.765 55.6856C150.765 55.6857 150.765 55.6857 150.765 55.6858C150.765 55.6858 150.765 55.6859 150.765 55.6859C150.765 55.686 150.765 55.6861 150.765 55.6861C150.765 55.6862 150.764 55.6862 150.764 55.6863C150.764 55.6863 150.764 55.6864 150.764 55.6865C150.764 55.6865 150.764 55.6866 150.764 55.6867C150.764 55.6867 150.764 55.6868 150.764 55.6868C150.764 55.6869 150.764 55.687 150.764 55.687C150.764 55.6871 150.764 55.6872 150.764 55.6873C150.764 55.6873 150.763 55.6874 150.763 55.6875C150.763 55.6875 150.763 55.6876 150.763 55.6877C150.763 55.6878 150.763 55.6878 150.763 55.6879C150.763 55.688 150.763 55.6881 150.763 55.6882C150.763 55.6882 150.763 55.6883 150.763 55.6884C150.763 55.6885 150.762 55.6886 150.762 55.6886C150.762 55.6887 150.762 55.6888 150.762 55.6889C150.762 55.689 150.762 55.6891 150.762 55.6892C150.762 55.6892 150.762 55.6893 150.762 55.6894C150.762 55.6895 150.762 55.6896 150.762 55.6897C150.761 55.6898 150.761 55.6899 150.761 55.69C150.761 55.6901 150.761 55.6902 150.761 55.6903C150.761 55.6904 150.761 55.6905 150.761 55.6906C150.761 55.6907 150.761 55.6908 150.761 55.6909C150.76 55.691 150.76 55.6911 150.76 55.6912C150.76 55.6913 150.76 55.6914 150.76 55.6915C150.76 55.6916 150.76 55.6917 150.76 55.6918C150.76 55.6919 150.76 55.692 150.759 55.6921C150.759 55.6923 150.759 55.6924 150.759 55.6925C150.759 55.6926 150.759 55.6927 150.759 55.6928C150.759 55.6929 150.759 55.6931 150.759 55.6932C150.759 55.6933 150.758 55.6934 150.758 55.6935C150.758 55.6937 150.758 55.6938 150.758 55.6939C150.758 55.694 150.758 55.6941 150.758 55.6943C150.758 55.6944 150.757 55.6945 150.757 55.6946C150.757 55.6948 150.757 55.6949 150.757 55.695C150.757 55.6952 150.757 55.6953 150.757 55.6954C150.757 55.6955 150.756 55.6957 150.756 55.6958C150.756 55.6959 150.756 55.6961 150.756 55.6962C150.756 55.6964 150.756 55.6965 150.756 55.6966C150.756 55.6968 150.755 55.6969 150.755 55.697C150.755 55.6972 150.755 55.6973 150.755 55.6975C150.755 55.6976 150.755 55.6978 150.755 55.6979C150.754 55.6981 150.754 55.6982 150.754 55.6983C150.754 55.6985 150.754 55.6986 150.754 55.6988C150.754 55.6989 150.754 55.6991 150.753 55.6992C150.753 55.6994 150.753 55.6995 150.753 55.6997C150.753 55.6999 150.753 55.7 150.753 55.7002C150.753 55.7003 150.752 55.7005 150.752 55.7006C150.752 55.7008 150.752 55.701 150.752 55.7011C150.752 55.7013 150.752 55.7014 150.752 55.7016C150.751 55.7018 150.751 55.7019 150.751 55.7021C150.751 55.7023 150.751 55.7024 150.751 55.7026C150.751 55.7028 150.75 55.7029 150.75 55.7031C150.75 55.7033 150.75 55.7034 150.75 55.7036C150.75 55.7038 150.75 55.704 150.749 55.7041C150.749 55.7043 150.749 55.7045 150.749 55.7047C150.749 55.7048 150.749 55.705 150.748 55.7052C150.748 55.7054 150.748 55.7056 150.748 55.7057C150.748 55.7059 150.748 55.7061 150.748 55.7063C150.747 55.7065 150.747 55.7066 150.747 55.7068C150.747 55.707 150.747 55.7072 150.747 55.7074C150.746 55.7076 150.746 55.7078 150.746 55.708C150.746 55.7082 150.746 55.7083 150.746 55.7085C150.746 55.7087 150.745 55.7089 150.745 55.7091C150.745 55.7093 150.745 55.7095 150.745 55.7097C150.745 55.7099 150.744 55.7101 150.744 55.7103C150.744 55.7105 150.744 55.7107 150.744 55.7109C150.744 55.7111 150.743 55.7113 150.743 55.7115C150.743 55.7117 150.743 55.7119 150.743 55.7121C150.742 55.7123 150.742 55.7125 150.742 55.7127C150.742 55.713 150.742 55.7132 150.742 55.7134C150.741 55.7136 150.741 55.7138 150.741 55.714C150.741 55.7142 150.741 55.7144 150.741 55.7147C150.74 55.7149 150.74 55.7151 150.74 55.7153C150.74 55.7155 150.74 55.7157 150.739 55.716C150.739 55.7162 150.739 55.7164 150.739 55.7166C150.739 55.7168 150.738 55.7171 150.738 55.7173C150.738 55.7175 150.738 55.7177 150.738 55.718C150.738 55.7182 150.737 55.7184 150.737 55.7186C150.737 55.7189 150.737 55.7191 150.737 55.7193C150.736 55.7196 150.736 55.7198 150.736 55.72C150.736 55.7203 150.736 55.7205 150.735 55.7207C150.735 55.721 150.735 55.7212 150.735 55.7214C150.735 55.7217 150.734 55.7219 150.734 55.7222C150.734 55.7224 150.734 55.7226 150.734 55.7229C150.733 55.7231 150.733 55.7234 150.733 55.7236C150.733 55.7239 150.733 55.7241 150.732 55.7244C150.732 55.7246 150.732 55.7248 150.732 55.7251C150.732 55.7253 150.731 55.7256 150.731 55.7258C150.731 55.7261 150.731 55.7264 150.73 55.7266C150.73 55.7269 150.73 55.7271 150.73 55.7274C150.73 55.7276 150.729 55.7279 150.729 55.7281C150.729 55.7284 150.729 55.7287 150.729 55.7289C150.728 55.7292 150.728 55.7294 150.728 55.7297C150.728 55.73 150.727 55.7302 150.727 55.7305C150.727 55.7308 150.727 55.731 150.727 55.7313C150.726 55.7316 150.726 55.7318 150.726 55.7321C150.726 55.7324 150.725 55.7326 150.725 55.7329C150.725 55.7332 150.725 55.7335 150.724 55.7337C150.724 55.734 150.724 55.7343 150.724 55.7346C150.724 55.7348 150.723 55.7351 150.723 55.7354C150.723 55.7357 150.723 55.7359 150.722 55.7362C150.722 55.7365 150.722 55.7368 150.722 55.7371C150.721 55.7374 150.721 55.7376 150.721 55.7379C150.721 55.7382 150.72 55.7385 150.72 55.7388C150.72 55.7391 150.72 55.7394 150.719 55.7397C150.719 55.7399 150.719 55.7402 150.719 55.7405C150.718 55.7408 150.718 55.7411 150.718 55.7414C150.718 55.7417 150.717 55.742 150.717 55.7423C150.717 55.7426 150.717 55.7429 150.716 55.7432C150.716 55.7435 150.716 55.7438 150.716 55.7441C150.715 55.7444 150.715 55.7447 150.715 55.745C150.715 55.7453 150.714 55.7456 150.714 55.7459C150.714 55.7462 150.714 55.7465 150.713 55.7468C150.713 55.7471 150.713 55.7474 150.713 55.7478C150.712 55.7481 150.712 55.7484 150.712 55.7487C150.712 55.749 150.711 55.7493 150.711 55.7496C150.711 55.7499 150.711 55.7503 150.71 55.7506C150.71 55.7509 150.71 55.7512 150.709 55.7515C150.709 55.7519 150.709 55.7522 150.709 55.7525C150.708 55.7528 150.708 55.7531 150.708 55.7535C150.708 55.7538 150.707 55.7541 150.707 55.7544C150.707 55.7548 150.706 55.7551 150.706 55.7554C150.706 55.7557 150.706 55.7561 150.705 55.7564C150.705 55.7567 150.705 55.7571 150.705 55.7574C150.704 55.7577 150.704 55.7581 150.704 55.7584C150.703 55.7587 150.703 55.7591 150.703 55.7594C150.703 55.7598 150.702 55.7601 150.702 55.7604C150.702 55.7608 150.701 55.7611 150.701 55.7615C150.701 55.7618 150.701 55.7621 150.7 55.7625C150.7 55.7628 150.7 55.7632 150.699 55.7635C150.699 55.7639 150.699 55.7642 150.698 55.7646C150.698 55.7649 150.698 55.7653 150.698 55.7656C150.697 55.766 150.697 55.7663 150.697 55.7667C150.696 55.767 150.696 55.7674 150.696 55.7677C150.696 55.7681 150.695 55.7684 150.695 55.7688C150.695 55.7692 150.694 55.7695 150.694 55.7699C150.694 55.7702 150.693 55.7706 150.693 55.771C150.693 55.7713 150.692 55.7717 150.692 55.7721C150.692 55.7724 150.692 55.7728 150.691 55.7732C150.691 55.7735 150.691 55.7739 150.69 55.7743C150.69 55.7746 150.69 55.775 150.689 55.7754C150.689 55.7757 150.689 55.7761 150.688 55.7765C150.688 55.7769 150.688 55.7772 150.688 55.7776C150.687 55.778 150.687 55.7784 150.687 55.7787C150.686 55.7791 150.686 55.7795 150.686 55.7799C150.685 55.7803 150.685 55.7806 150.685 55.781C150.684 55.7814 150.684 55.7818 150.684 55.7822C150.683 55.7826 150.683 55.7829 150.683 55.7833C150.682 55.7837 150.682 55.7841 150.682 55.7845C150.681 55.7849 150.681 55.7853 150.681 55.7857C150.68 55.7861 150.68 55.7865 150.68 55.7869C150.679 55.7872 150.679 55.7876 150.679 55.788C150.678 55.7884 150.678 55.7888 150.678 55.7892C150.677 55.7896 150.677 55.79 150.677 55.7904C150.676 55.7908 150.676 55.7912 150.676 55.7916C150.675 55.792 150.675 55.7924 150.675 55.7928C150.674 55.7933 150.674 55.7937 150.674 55.7941C150.673 55.7945 150.673 55.7949 150.673 55.7953C150.672 55.7957 150.672 55.7961 150.672 55.7965C150.671 55.7969 150.671 55.7974 150.671 55.7978C150.67 55.7982 150.67 55.7986 150.669 55.799C150.669 55.7994 150.669 55.7998 150.668 55.8003C150.668 55.8007 150.668 55.8011 150.667 55.8015C150.667 55.8019 150.667 55.8024 150.666 55.8028C150.666 55.8032 150.666 55.8036 150.665 55.8041C150.665 55.8045 150.665 55.8049 150.664 55.8054C150.664 55.8058 150.663 55.8062 150.663 55.8066C150.663 55.8071 150.662 55.8075 150.662 55.8079C150.662 55.8084 150.661 55.8088 150.661 55.8092C150.661 55.8097 150.66 55.8101 150.66 55.8105C150.659 55.811 150.659 55.8114 150.659 55.8119C150.658 55.8123 150.658 55.8127 150.658 55.8132C150.657 55.8136 150.657 55.8141 150.656 55.8145C150.656 55.815 150.656 55.8154 150.655 55.8158C150.655 55.8163 150.655 55.8167 150.654 55.8172C150.654 55.8176 150.653 55.8181 150.653 55.8185C150.653 55.819 150.652 55.8194 150.652 55.8199C150.652 55.8203 150.651 55.8208 150.651 55.8213C150.65 55.8217 150.65 55.8222 150.65 55.8226C150.649 55.8231 150.649 55.8235 150.648 55.824C150.648 55.8245 150.648 55.8249 150.647 55.8254C150.647 55.8258 150.646 55.8263 150.646 55.8268C150.646 55.8272 150.645 55.8277 150.645 55.8282C150.645 55.8286 150.644 55.8291 150.644 55.8296C150.643 55.83 150.643 55.8305 150.643 55.831C150.642 55.8314 150.642 55.8319 150.641 55.8324C150.641 55.8329 150.641 55.8333 150.64 55.8338C150.64 55.8343 150.639 55.8348 150.639 55.8352C150.639 55.8357 150.638 55.8362 150.638 55.8367C150.637 55.8372 150.637 55.8376 150.637 55.8381C150.636 55.8386 150.636 55.8391 150.635 55.8396C150.635 55.8401 150.634 55.8406 150.634 55.841C150.634 55.8415 150.633 55.842 150.633 55.8425C150.632 55.843 150.632 55.8435 150.632 55.844C150.631 55.8445 150.631 55.845 150.63 55.8455C150.63 55.8459 150.63 55.8464 150.629 55.8469C150.629 55.8474 150.628 55.8479 150.628 55.8484C150.627 55.8489 150.627 55.8494 150.627 55.8499C150.626 55.8504 150.626 55.8509 150.625 55.8514C150.625 55.8519 150.624 55.8524 150.624 55.8529C150.624 55.8534 150.623 55.854 150.623 55.8545C150.622 55.855 150.622 55.8555 150.621 55.856C150.621 55.8565 150.621 55.857 150.62 55.8575C150.62 55.858 150.619 55.8585 150.619 55.8591C150.618 55.8596 150.618 55.8601 150.618 55.8606C150.617 55.8611 150.617 55.8616 150.616 55.8622C150.616 55.8627 150.615 55.8632 150.615 55.8637C150.615 55.8642 150.614 55.8648 150.614 55.8653C150.613 55.8658 150.613 55.8663 150.612 55.8669C150.612 55.8674 150.611 55.8679 150.611 55.8684C150.611 55.869 150.61 55.8695 150.61 55.87C150.609 55.8706 150.609 55.8711 150.608 55.8716C150.608 55.8721 150.607 55.8727 150.607 55.8732C150.607 55.8737 150.606 55.8743 150.606 55.8748C150.605 55.8754 150.605 55.8759 150.604 55.8764C150.604 55.877 150.603 55.8775 150.603 55.8781C150.602 55.8786 150.602 55.8791 150.602 55.8797C150.601 55.8802 150.601 55.8808 150.6 55.8813C150.6 55.8819 150.599 55.8824 150.599 55.883C150.598 55.8835 150.598 55.8841 150.597 55.8846C150.597 55.8852 150.596 55.8857 150.596 55.8863C150.596 55.8868 150.595 55.8874 150.595 55.8879C150.594 55.8885 150.594 55.889 150.593 55.8896C150.593 55.8901 150.592 55.8907 150.592 55.8913C150.591 55.8918 150.591 55.8924 150.59 55.8929C150.59 55.8935 150.589 55.8941 150.589 55.8946C150.588 55.8952 150.588 55.8958 150.588 55.8963C150.587 55.8969 150.587 55.8975 150.586 55.898C150.586 55.8986 150.585 55.8992 150.585 55.8997C150.584 55.9003 150.584 55.9009 150.583 55.9015C150.583 55.902 150.582 55.9026 150.582 55.9032C150.581 55.9038 150.581 55.9043 150.58 55.9049C150.58 55.9055 150.579 55.9061 150.579 55.9066C150.578 55.9072 150.578 55.9078 150.577 55.9084C150.577 55.909 150.576 55.9096 150.576 55.9101C150.575 55.9107 150.575 55.9113 150.574 55.9119C150.574 55.9125 150.573 55.9131 150.573 55.9137C150.572 55.9142 150.572 55.9148 150.571 55.9154C150.571 55.916 150.57 55.9166 150.57 55.9172C150.569 55.9178 150.569 55.9184 150.568 55.919C150.568 55.9196 150.567 55.9202 150.567 55.9208C150.566 55.9214 150.566 55.922 150.565 55.9226C150.565 55.9232 150.564 55.9238 150.564 55.9244C150.563 55.925 150.563 55.9256 150.562 55.9262C150.562 55.9268 150.561 55.9274 150.561 55.928C150.56 55.9286 150.56 55.9292 150.559 55.9298C150.559 55.9304 150.558 55.9311 150.558 55.9317C150.557 55.9323 150.557 55.9329 150.556 55.9335C150.556 55.9341 150.555 55.9347 150.555 55.9353C150.554 55.936 150.554 55.9366 150.553 55.9372C150.553 55.9378 150.552 55.9384 150.552 55.9391C150.551 55.9397 150.55 55.9403 150.55 55.9409C150.549 55.9415 150.549 55.9422 150.548 55.9428C150.548 55.9434 150.547 55.944 150.547 55.9447C150.546 55.9453 150.546 55.9459 150.545 55.9466C150.545 55.9472 150.544 55.9478 150.544 55.9485C150.543 55.9491 150.543 55.9497 150.542 55.9504C150.542 55.951 150.541 55.9516 150.54 55.9523C150.54 55.9529 150.539 55.9535 150.539 55.9542C150.538 55.9548 150.538 55.9554 150.537 55.9561C150.537 55.9567 150.536 55.9574 150.536 55.958C150.535 55.9587 150.534 55.9593 150.534 55.9599C150.533 55.9606 150.533 55.9612 150.532 55.9619C150.532 55.9625 150.531 55.9632 150.531 55.9638C150.53 55.9645 150.53 55.9651 150.529 55.9658C150.528 55.9664 150.528 55.9671 150.527 55.9677C150.527 55.9684 150.526 55.9691 150.526 55.9697C150.525 55.9704 150.525 55.971 150.524 55.9717C150.524 55.9723 150.523 55.973 150.522 55.9737C150.522 55.9743 150.521 55.975 150.521 55.9757C150.52 55.9763 150.52 55.977 150.519 55.9777C150.518 55.9783 150.518 55.979 150.517 55.9797C150.517 55.9803 150.516 55.981 150.516 55.9817C150.515 55.9823 150.515 55.983 150.514 55.9837C150.513 55.9843 150.513 55.985 150.512 55.9857C150.512 55.9864 150.511 55.987 150.511 55.9877C150.51 55.9884 150.509 55.9891 150.509 55.9898C150.508 55.9904 150.508 55.9911 150.507 55.9918C150.507 55.9925 150.506 55.9932 150.505 55.9939C150.505 55.9945 150.504 55.9952 150.504 55.9959C150.503 55.9966 150.503 55.9973 150.502 55.998C150.501 55.9987 150.501 55.9993 150.5 56C150.5 56.0007 150.499 56.0014 150.498 56.0021C150.498 56.0028 150.497 56.0035 150.497 56.0042C150.496 56.0049 150.496 56.0056 150.495 56.0063C150.494 56.007 150.494 56.0077 150.493 56.0084C150.493 56.0091 150.492 56.0098 150.491 56.0105C150.491 56.0112 150.49 56.0119 150.49 56.0126C150.489 56.0133 150.488 56.014 150.488 56.0147C150.487 56.0154 150.487 56.0161 150.486 56.0168C150.485 56.0175 150.485 56.0183 150.484 56.019C150.484 56.0197 150.483 56.0204 150.482 56.0211C150.482 56.0218 150.481 56.0225 150.481 56.0232C150.48 56.024 150.479 56.0247 150.479 56.0254C150.478 56.0261 150.478 56.0268 150.477 56.0276C150.476 56.0283 150.476 56.029 150.475 56.0297C150.475 56.0304 150.474 56.0312 150.473 56.0319C150.473 56.0326 150.472 56.0333 150.472 56.0341C150.471 56.0348 150.47 56.0355 150.47 56.0363C150.469 56.037 150.468 56.0377 150.468 56.0384C150.467 56.0392 150.467 56.0399 150.466 56.0406C150.465 56.0414 150.465 56.0421 150.464 56.0428C150.464 56.0436 150.463 56.0443 150.462 56.0451C150.462 56.0458 150.461 56.0465 150.46 56.0473C150.46 56.048 150.459 56.0488 150.459 56.0495C150.458 56.0502 150.457 56.051 150.457 56.0517C150.456 56.0525 150.455 56.0532 150.455 56.054C150.454 56.0547 150.454 56.0555 150.453 56.0562C150.452 56.057 150.452 56.0577 150.451 56.0585C150.45 56.0592 150.45 56.06 150.449 56.0607C150.448 56.0615 150.448 56.0622 150.447 56.063C150.447 56.0638 150.446 56.0645 150.445 56.0653C150.445 56.066 150.444 56.0668 150.443 56.0675C150.443 56.0683 150.442 56.0691 150.441 56.0698C150.441 56.0706 150.44 56.0714 150.439 56.0721C150.439 56.0729 150.438 56.0737 150.438 56.0744C150.437 56.0752 150.436 56.076 150.436 56.0767C150.435 56.0775 150.434 56.0783 150.434 56.079C150.433 56.0798 150.432 56.0806 150.432 56.0814C150.431 56.0821 150.43 56.0829 150.43 56.0837C150.429 56.0845 150.428 56.0853 150.428 56.086C150.427 56.0868 150.426 56.0876 150.426 56.0884C150.425 56.0892 150.424 56.0899 150.424 56.0907C150.423 56.0915 150.423 56.0923 150.422 56.0931C150.421 56.0939 150.421 56.0946 150.42 56.0954C150.419 56.0962 150.419 56.097 150.418 56.0978C150.417 56.0986 150.417 56.0994 150.416 56.1002C150.415 56.101 150.415 56.1018 150.414 56.1026C150.413 56.1034 150.413 56.1042 150.412 56.1049C150.411 56.1057 150.411 56.1065 150.41 56.1073C150.409 56.1081 150.408 56.1089 150.408 56.1097C150.407 56.1105 150.406 56.1114 150.406 56.1122C150.405 56.113 150.404 56.1138 150.404 56.1146C150.403 56.1154 150.402 56.1162 150.402 56.117C150.401 56.1178 150.4 56.1186 150.4 56.1194C150.399 56.1202 150.398 56.121 150.398 56.1219C150.397 56.1227 150.396 56.1235 150.396 56.1243C150.395 56.1251 150.394 56.1259 150.393 56.1268C150.393 56.1276 150.392 56.1284 150.391 56.1292C150.391 56.13 150.39 56.1308 150.389 56.1317C150.389 56.1325 150.388 56.1333 150.387 56.1341C150.387 56.135 150.386 56.1358 150.385 56.1366C150.384 56.1374 150.384 56.1383 150.383 56.1391C150.382 56.1399 150.382 56.1408 150.381 56.1416C150.38 56.1424 150.38 56.1433 150.379 56.1441C150.378 56.1449 150.377 56.1458 150.377 56.1466C150.376 56.1474 150.375 56.1483 150.375 56.1491C150.374 56.1499 150.373 56.1508 150.373 56.1516C150.372 56.1525 150.371 56.1533 150.37 56.1541C150.37 56.155 150.369 56.1558 150.368 56.1567C150.368 56.1575 150.367 56.1584 150.366 56.1592C150.365 56.1601 150.365 56.1609 150.364 56.1618C150.363 56.1626 150.363 56.1635 150.362 56.1643C150.361 56.1652 150.36 56.166 150.36 56.1669C150.359 56.1677 150.358 56.1686 150.358 56.1694C150.357 56.1703 150.356 56.1711 150.355 56.172C150.355 56.1729 150.354 56.1737 150.353 56.1746C150.352 56.1754 150.352 56.1763 150.351 56.1772C150.35 56.178 150.35 56.1789 150.349 56.1798C150.348 56.1806 150.347 56.1815 150.347 56.1824C150.346 56.1832 150.345 56.1841 150.344 56.185C150.344 56.1858 150.343 56.1867 150.342 56.1876C150.342 56.1885 150.341 56.1893 150.34 56.1902C150.339 56.1911 150.339 56.1919 150.338 56.1928C150.337 56.1937 150.336 56.1946 150.336 56.1955C150.335 56.1963 150.334 56.1972 150.333 56.1981C150.333 56.199 150.332 56.1999 150.331 56.2007C150.33 56.2016 150.33 56.2025 150.329 56.2034C150.328 56.2043 150.327 56.2052 150.327 56.2061C150.326 56.2069 150.325 56.2078 150.324 56.2087C150.324 56.2096 150.323 56.2105 150.322 56.2114C150.321 56.2123 150.321 56.2132 150.32 56.2141C150.319 56.215 150.318 56.2159 150.318 56.2168C150.317 56.2177 150.316 56.2186 150.315 56.2195C150.315 56.2204 150.314 56.2213 150.313 56.2222C150.312 56.2231 150.312 56.224 150.311 56.2249C150.31 56.2258 150.309 56.2267 150.309 56.2276C150.308 56.2285 150.307 56.2294 150.306 56.2303C150.306 56.2312 150.305 56.2321 150.304 56.233C150.303 56.2339 150.302 56.2349 150.302 56.2358C150.301 56.2367 150.3 56.2376 150.299 56.2385C150.299 56.2394 150.298 56.2403 150.297 56.2413C150.296 56.2422 150.296 56.2431 150.295 56.244C150.294 56.2449 150.293 56.2459 150.292 56.2468C150.292 56.2477 150.291 56.2486 150.29 56.2495C150.289 56.2505 150.289 56.2514 150.288 56.2523C150.287 56.2532 150.286 56.2542 150.285 56.2551C150.285 56.256 150.284 56.257 150.283 56.2579C150.282 56.2588 150.281 56.2598 150.281 56.2607C150.28 56.2616 150.279 56.2626 150.278 56.2635C150.278 56.2644 150.277 56.2654 150.276 56.2663C150.275 56.2672 150.274 56.2682 150.274 56.2691C150.273 56.2701 150.272 56.271 150.271 56.2719C150.27 56.2729 150.27 56.2738 150.269 56.2748C150.268 56.2757 150.267 56.2767 150.266 56.2776C150.266 56.2786 150.265 56.2795 150.264 56.2805C150.263 56.2814 150.262 56.2824 150.262 56.2833C150.261 56.2843 150.26 56.2852 150.259 56.2862C150.258 56.2871 150.258 56.2881 150.257 56.289C150.256 56.29 150.255 56.2909 150.254 56.2919C150.254 56.2929 150.253 56.2938 150.252 56.2948C150.251 56.2957 150.25 56.2967 150.25 56.2977C150.249 56.2986 150.248 56.2996 150.247 56.3005C150.246 56.3015 150.246 56.3025 150.245 56.3034C150.244 56.3044 150.243 56.3054 150.242 56.3064C150.241 56.3073 150.241 56.3083 150.24 56.3093C150.239 56.3102 150.238 56.3112 150.237 56.3122C150.237 56.3132 150.236 56.3141 150.235 56.3151C150.234 56.3161 150.233 56.3171 150.232 56.318C150.232 56.319 150.231 56.32 150.23 56.321C150.229 56.322 150.228 56.3229 150.227 56.3239C150.227 56.3249 150.226 56.3259 150.225 56.3269C150.224 56.3279 150.223 56.3288 150.222 56.3298C150.222 56.3308 150.221 56.3318 150.22 56.3328C150.219 56.3338 150.218 56.3348 150.217 56.3358C150.217 56.3368 150.216 56.3378 150.215 56.3388C150.214 56.3397 150.213 56.3407 150.212 56.3417C150.212 56.3427 150.211 56.3437 150.21 56.3447C150.209 56.3457 150.208 56.3467 150.207 56.3477C150.207 56.3487 150.206 56.3497 150.205 56.3507C150.204 56.3517 150.203 56.3527 150.202 56.3538C150.201 56.3548 150.201 56.3558 150.2 56.3568C150.199 56.3578 150.198 56.3588 150.197 56.3598C150.196 56.3608 150.196 56.3618 150.195 56.3628C150.194 56.3638 150.193 56.3649 150.192 56.3659C150.191 56.3669 150.19 56.3679 150.19 56.3689C150.189 56.3699 150.188 56.371 150.187 56.372C150.186 56.373 150.185 56.374 150.184 56.375C150.184 56.3761 150.183 56.3771 150.182 56.3781C150.181 56.3791 150.18 56.3802 150.179 56.3812C150.178 56.3822 150.178 56.3832 150.177 56.3843C150.176 56.3853 150.175 56.3863 150.174 56.3873C150.173 56.3884 150.172 56.3894 150.171 56.3904C150.171 56.3915 150.17 56.3925 150.169 56.3935C150.168 56.3946 150.167 56.3956 150.166 56.3967C150.165 56.3977 150.164 56.3987 150.164 56.3998C150.163 56.4008 150.162 56.4019 150.161 56.4029C150.16 56.4039 150.159 56.405 150.158 56.406C150.157 56.4071 150.157 56.4081 150.156 56.4092C150.155 56.4102 150.154 56.4113 150.153 56.4123C150.152 56.4133 150.151 56.4144 150.15 56.4154C150.149 56.4165 150.149 56.4176 150.148 56.4186C150.147 56.4197 150.146 56.4207 150.145 56.4218C150.144 56.4228 150.143 56.4239 150.142 56.4249C150.141 56.426 150.141 56.4271 150.14 56.4281C150.139 56.4292 150.138 56.4302 150.137 56.4313C150.136 56.4324 150.135 56.4334 150.134 56.4345C150.133 56.4356 150.133 56.4366 150.132 56.4377C150.131 56.4388 150.13 56.4398 150.129 56.4409C150.128 56.442 150.127 56.443 150.126 56.4441C150.125 56.4452 150.124 56.4462 150.124 56.4473C150.123 56.4484 150.122 56.4495 150.121 56.4505C150.12 56.4516 150.119 56.4527 150.118 56.4538C150.117 56.4549 150.116 56.4559 150.115 56.457C150.114 56.4581 150.114 56.4592 150.113 56.4603C150.112 56.4613 150.111 56.4624 150.11 56.4635C150.109 56.4646 150.108 56.4657 150.107 56.4668C150.106 56.4679 150.105 56.4689 150.104 56.47C150.103 56.4711 150.103 56.4722 150.102 56.4733C150.101 56.4744 150.1 56.4755 150.099 56.4766C150.098 56.4777 150.097 56.4788 150.096 56.4799C150.095 56.481 150.094 56.4821 150.093 56.4832C150.092 56.4843 150.092 56.4854 150.091 56.4865C150.09 56.4876 150.089 56.4887 150.088 56.4898C150.087 56.4909 150.086 56.492 150.085 56.4931C150.084 56.4942 150.083 56.4953 150.082 56.4964C150.081 56.4975 150.08 56.4986 150.079 56.4997C150.078 56.5008 150.078 56.5019 150.077 56.5031C150.076 56.5042 150.075 56.5053 150.074 56.5064C150.073 56.5075 150.072 56.5086 150.071 56.5097C150.07 56.5109 150.069 56.512 150.068 56.5131C150.067 56.5142 150.066 56.5153 150.065 56.5165C150.064 56.5176 150.063 56.5187 150.062 56.5198C150.062 56.5209 150.061 56.5221 150.06 56.5232C150.059 56.5243 150.058 56.5254 150.057 56.5266C150.056 56.5277 150.055 56.5288 150.054 56.53C150.053 56.5311 150.052 56.5322 150.051 56.5334C150.05 56.5345 150.049 56.5356 150.048 56.5368C150.047 56.5379 150.046 56.539 150.045 56.5402C150.044 56.5413 150.043 56.5424 150.042 56.5436C150.042 56.5447 150.041 56.5459 150.04 56.547C150.039 56.5481 150.038 56.5493 150.037 56.5504C150.036 56.5516 150.035 56.5527 150.034 56.5539C150.033 56.555 150.032 56.5562 150.031 56.5573C150.03 56.5585 150.029 56.5596 150.028 56.5608C150.027 56.5619 150.026 56.5631 150.025 56.5642C150.024 56.5654 150.023 56.5665 150.022 56.5677C150.021 56.5688 150.02 56.57 150.019 56.5711C150.018 56.5723 150.017 56.5735 150.016 56.5746L151.546 57.8629C151.547 57.8617 151.548 57.8606 151.549 57.8594C151.55 57.8583 151.551 57.8571 151.552 57.8559C151.553 57.8548 151.554 57.8536 151.555 57.8525C151.556 57.8513 151.557 57.8502 151.558 57.849C151.559 57.8479 151.56 57.8467 151.561 57.8456C151.562 57.8444 151.563 57.8433 151.564 57.8421C151.565 57.841 151.566 57.8398 151.567 57.8387C151.567 57.8376 151.568 57.8364 151.569 57.8353C151.57 57.8341 151.571 57.833 151.572 57.8318C151.573 57.8307 151.574 57.8296 151.575 57.8284C151.576 57.8273 151.577 57.8262 151.578 57.825C151.579 57.8239 151.58 57.8228 151.581 57.8216C151.582 57.8205 151.583 57.8194 151.584 57.8182C151.585 57.8171 151.586 57.816 151.587 57.8148C151.588 57.8137 151.589 57.8126 151.589 57.8115C151.59 57.8103 151.591 57.8092 151.592 57.8081C151.593 57.807 151.594 57.8058 151.595 57.8047C151.596 57.8036 151.597 57.8025 151.598 57.8014C151.599 57.8002 151.6 57.7991 151.601 57.798C151.602 57.7969 151.603 57.7958 151.604 57.7947C151.605 57.7936 151.605 57.7924 151.606 57.7913C151.607 57.7902 151.608 57.7891 151.609 57.788C151.61 57.7869 151.611 57.7858 151.612 57.7847C151.613 57.7836 151.614 57.7825 151.615 57.7813C151.616 57.7802 151.617 57.7791 151.618 57.778C151.619 57.7769 151.619 57.7758 151.62 57.7747C151.621 57.7736 151.622 57.7725 151.623 57.7714C151.624 57.7703 151.625 57.7692 151.626 57.7681C151.627 57.767 151.628 57.7659 151.629 57.7649C151.63 57.7638 151.631 57.7627 151.631 57.7616C151.632 57.7605 151.633 57.7594 151.634 57.7583C151.635 57.7572 151.636 57.7561 151.637 57.755C151.638 57.7539 151.639 57.7529 151.64 57.7518C151.641 57.7507 151.642 57.7496 151.642 57.7485C151.643 57.7474 151.644 57.7464 151.645 57.7453C151.646 57.7442 151.647 57.7431 151.648 57.742C151.649 57.741 151.65 57.7399 151.651 57.7388C151.652 57.7377 151.652 57.7367 151.653 57.7356C151.654 57.7345 151.655 57.7334 151.656 57.7324C151.657 57.7313 151.658 57.7302 151.659 57.7292C151.66 57.7281 151.661 57.727 151.661 57.726C151.662 57.7249 151.663 57.7238 151.664 57.7228C151.665 57.7217 151.666 57.7206 151.667 57.7196C151.668 57.7185 151.669 57.7174 151.67 57.7164C151.67 57.7153 151.671 57.7143 151.672 57.7132C151.673 57.7122 151.674 57.7111 151.675 57.71C151.676 57.709 151.677 57.7079 151.678 57.7069C151.678 57.7058 151.679 57.7048 151.68 57.7037C151.681 57.7027 151.682 57.7016 151.683 57.7006C151.684 57.6995 151.685 57.6985 151.685 57.6974C151.686 57.6964 151.687 57.6953 151.688 57.6943C151.689 57.6932 151.69 57.6922 151.691 57.6912C151.692 57.6901 151.693 57.6891 151.693 57.688C151.694 57.687 151.695 57.686 151.696 57.6849C151.697 57.6839 151.698 57.6829 151.699 57.6818C151.7 57.6808 151.7 57.6797 151.701 57.6787C151.702 57.6777 151.703 57.6767 151.704 57.6756C151.705 57.6746 151.706 57.6736 151.706 57.6725C151.707 57.6715 151.708 57.6705 151.709 57.6695C151.71 57.6684 151.711 57.6674 151.712 57.6664C151.713 57.6654 151.713 57.6643 151.714 57.6633C151.715 57.6623 151.716 57.6613 151.717 57.6602C151.718 57.6592 151.719 57.6582 151.719 57.6572C151.72 57.6562 151.721 57.6552 151.722 57.6541C151.723 57.6531 151.724 57.6521 151.725 57.6511C151.725 57.6501 151.726 57.6491 151.727 57.6481C151.728 57.6471 151.729 57.6461 151.73 57.645C151.73 57.644 151.731 57.643 151.732 57.642C151.733 57.641 151.734 57.64 151.735 57.639C151.736 57.638 151.736 57.637 151.737 57.636C151.738 57.635 151.739 57.634 151.74 57.633C151.741 57.632 151.741 57.631 151.742 57.63C151.743 57.629 151.744 57.628 151.745 57.627C151.746 57.626 151.746 57.625 151.747 57.624C151.748 57.6231 151.749 57.6221 151.75 57.6211C151.751 57.6201 151.751 57.6191 151.752 57.6181C151.753 57.6171 151.754 57.6161 151.755 57.6151C151.756 57.6142 151.756 57.6132 151.757 57.6122C151.758 57.6112 151.759 57.6102 151.76 57.6092C151.761 57.6083 151.761 57.6073 151.762 57.6063C151.763 57.6053 151.764 57.6044 151.765 57.6034C151.766 57.6024 151.766 57.6014 151.767 57.6005C151.768 57.5995 151.769 57.5985 151.77 57.5975C151.77 57.5966 151.771 57.5956 151.772 57.5946C151.773 57.5937 151.774 57.5927 151.775 57.5917C151.775 57.5907 151.776 57.5898 151.777 57.5888C151.778 57.5879 151.779 57.5869 151.779 57.5859C151.78 57.585 151.781 57.584 151.782 57.583C151.783 57.5821 151.783 57.5811 151.784 57.5802C151.785 57.5792 151.786 57.5783 151.787 57.5773C151.787 57.5763 151.788 57.5754 151.789 57.5744C151.79 57.5735 151.791 57.5725 151.791 57.5716C151.792 57.5706 151.793 57.5697 151.794 57.5687C151.795 57.5678 151.795 57.5668 151.796 57.5659C151.797 57.5649 151.798 57.564 151.799 57.563C151.799 57.5621 151.8 57.5612 151.801 57.5602C151.802 57.5593 151.803 57.5583 151.803 57.5574C151.804 57.5564 151.805 57.5555 151.806 57.5546C151.807 57.5536 151.807 57.5527 151.808 57.5518C151.809 57.5508 151.81 57.5499 151.811 57.549C151.811 57.548 151.812 57.5471 151.813 57.5462C151.814 57.5452 151.814 57.5443 151.815 57.5434C151.816 57.5424 151.817 57.5415 151.818 57.5406C151.818 57.5397 151.819 57.5387 151.82 57.5378C151.821 57.5369 151.821 57.536 151.822 57.535C151.823 57.5341 151.824 57.5332 151.825 57.5323C151.825 57.5314 151.826 57.5304 151.827 57.5295C151.828 57.5286 151.828 57.5277 151.829 57.5268C151.83 57.5259 151.831 57.525 151.832 57.524C151.832 57.5231 151.833 57.5222 151.834 57.5213C151.835 57.5204 151.835 57.5195 151.836 57.5186C151.837 57.5177 151.838 57.5168 151.838 57.5159C151.839 57.5149 151.84 57.514 151.841 57.5131C151.841 57.5122 151.842 57.5113 151.843 57.5104C151.844 57.5095 151.844 57.5086 151.845 57.5077C151.846 57.5068 151.847 57.5059 151.848 57.505C151.848 57.5041 151.849 57.5032 151.85 57.5024C151.851 57.5015 151.851 57.5006 151.852 57.4997C151.853 57.4988 151.854 57.4979 151.854 57.497C151.855 57.4961 151.856 57.4952 151.857 57.4943C151.857 57.4934 151.858 57.4926 151.859 57.4917C151.86 57.4908 151.86 57.4899 151.861 57.489C151.862 57.4881 151.862 57.4872 151.863 57.4864C151.864 57.4855 151.865 57.4846 151.865 57.4837C151.866 57.4828 151.867 57.482 151.868 57.4811C151.868 57.4802 151.869 57.4793 151.87 57.4785C151.871 57.4776 151.871 57.4767 151.872 57.4758C151.873 57.475 151.874 57.4741 151.874 57.4732C151.875 57.4724 151.876 57.4715 151.876 57.4706C151.877 57.4698 151.878 57.4689 151.879 57.468C151.879 57.4672 151.88 57.4663 151.881 57.4654C151.882 57.4646 151.882 57.4637 151.883 57.4629C151.884 57.462 151.884 57.4611 151.885 57.4603C151.886 57.4594 151.887 57.4586 151.887 57.4577C151.888 57.4568 151.889 57.456 151.89 57.4551C151.89 57.4543 151.891 57.4534 151.892 57.4526C151.892 57.4517 151.893 57.4509 151.894 57.45C151.895 57.4492 151.895 57.4483 151.896 57.4475C151.897 57.4466 151.897 57.4458 151.898 57.4449C151.899 57.4441 151.9 57.4433 151.9 57.4424C151.901 57.4416 151.902 57.4407 151.902 57.4399C151.903 57.4391 151.904 57.4382 151.904 57.4374C151.905 57.4365 151.906 57.4357 151.907 57.4349C151.907 57.434 151.908 57.4332 151.909 57.4324C151.909 57.4315 151.91 57.4307 151.911 57.4299C151.912 57.429 151.912 57.4282 151.913 57.4274C151.914 57.4265 151.914 57.4257 151.915 57.4249C151.916 57.4241 151.916 57.4232 151.917 57.4224C151.918 57.4216 151.918 57.4208 151.919 57.4199C151.92 57.4191 151.921 57.4183 151.921 57.4175C151.922 57.4167 151.923 57.4158 151.923 57.415C151.924 57.4142 151.925 57.4134 151.925 57.4126C151.926 57.4118 151.927 57.4109 151.927 57.4101C151.928 57.4093 151.929 57.4085 151.929 57.4077C151.93 57.4069 151.931 57.4061 151.932 57.4053C151.932 57.4045 151.933 57.4036 151.934 57.4028C151.934 57.402 151.935 57.4012 151.936 57.4004C151.936 57.3996 151.937 57.3988 151.938 57.398C151.938 57.3972 151.939 57.3964 151.94 57.3956C151.94 57.3948 151.941 57.394 151.942 57.3932C151.942 57.3924 151.943 57.3916 151.944 57.3908C151.944 57.39 151.945 57.3892 151.946 57.3885C151.946 57.3877 151.947 57.3869 151.948 57.3861C151.948 57.3853 151.949 57.3845 151.95 57.3837C151.95 57.3829 151.951 57.3821 151.952 57.3813C151.952 57.3806 151.953 57.3798 151.954 57.379C151.954 57.3782 151.955 57.3774 151.956 57.3766C151.956 57.3759 151.957 57.3751 151.958 57.3743C151.958 57.3735 151.959 57.3727 151.96 57.372C151.96 57.3712 151.961 57.3704 151.962 57.3696C151.962 57.3689 151.963 57.3681 151.963 57.3673C151.964 57.3665 151.965 57.3658 151.965 57.365C151.966 57.3642 151.967 57.3635 151.967 57.3627C151.968 57.3619 151.969 57.3612 151.969 57.3604C151.97 57.3596 151.971 57.3589 151.971 57.3581C151.972 57.3573 151.973 57.3566 151.973 57.3558C151.974 57.3551 151.974 57.3543 151.975 57.3535C151.976 57.3528 151.976 57.352 151.977 57.3513C151.978 57.3505 151.978 57.3498 151.979 57.349C151.98 57.3482 151.98 57.3475 151.981 57.3467C151.981 57.346 151.982 57.3452 151.983 57.3445C151.983 57.3437 151.984 57.343 151.985 57.3422C151.985 57.3415 151.986 57.3408 151.986 57.34C151.987 57.3393 151.988 57.3385 151.988 57.3378C151.989 57.337 151.99 57.3363 151.99 57.3355C151.991 57.3348 151.991 57.3341 151.992 57.3333C151.993 57.3326 151.993 57.3319 151.994 57.3311C151.995 57.3304 151.995 57.3296 151.996 57.3289C151.996 57.3282 151.997 57.3274 151.998 57.3267C151.998 57.326 151.999 57.3253 152 57.3245C152 57.3238 152.001 57.3231 152.001 57.3223C152.002 57.3216 152.003 57.3209 152.003 57.3202C152.004 57.3194 152.004 57.3187 152.005 57.318C152.006 57.3173 152.006 57.3165 152.007 57.3158C152.007 57.3151 152.008 57.3144 152.009 57.3137C152.009 57.313 152.01 57.3122 152.01 57.3115C152.011 57.3108 152.012 57.3101 152.012 57.3094C152.013 57.3087 152.013 57.3079 152.014 57.3072C152.015 57.3065 152.015 57.3058 152.016 57.3051C152.016 57.3044 152.017 57.3037 152.018 57.303C152.018 57.3023 152.019 57.3016 152.019 57.3009C152.02 57.3002 152.021 57.2995 152.021 57.2988C152.022 57.2981 152.022 57.2974 152.023 57.2967C152.024 57.296 152.024 57.2953 152.025 57.2946C152.025 57.2939 152.026 57.2932 152.027 57.2925C152.027 57.2918 152.028 57.2911 152.028 57.2904C152.029 57.2897 152.029 57.289 152.03 57.2883C152.031 57.2876 152.031 57.2869 152.032 57.2862C152.032 57.2856 152.033 57.2849 152.033 57.2842C152.034 57.2835 152.035 57.2828 152.035 57.2821C152.036 57.2814 152.036 57.2808 152.037 57.2801C152.038 57.2794 152.038 57.2787 152.039 57.278C152.039 57.2774 152.04 57.2767 152.04 57.276C152.041 57.2753 152.042 57.2746 152.042 57.274C152.043 57.2733 152.043 57.2726 152.044 57.2719C152.044 57.2713 152.045 57.2706 152.045 57.2699C152.046 57.2693 152.047 57.2686 152.047 57.2679C152.048 57.2673 152.048 57.2666 152.049 57.2659C152.049 57.2653 152.05 57.2646 152.051 57.2639C152.051 57.2633 152.052 57.2626 152.052 57.2619C152.053 57.2613 152.053 57.2606 152.054 57.26C152.054 57.2593 152.055 57.2586 152.056 57.258C152.056 57.2573 152.057 57.2567 152.057 57.256C152.058 57.2554 152.058 57.2547 152.059 57.2541C152.059 57.2534 152.06 57.2528 152.061 57.2521C152.061 57.2515 152.062 57.2508 152.062 57.2502C152.063 57.2495 152.063 57.2489 152.064 57.2482C152.064 57.2476 152.065 57.2469 152.065 57.2463C152.066 57.2456 152.066 57.245 152.067 57.2444C152.068 57.2437 152.068 57.2431 152.069 57.2424C152.069 57.2418 152.07 57.2412 152.07 57.2405C152.071 57.2399 152.071 57.2393 152.072 57.2386C152.072 57.238 152.073 57.2374 152.073 57.2367C152.074 57.2361 152.075 57.2355 152.075 57.2348C152.076 57.2342 152.076 57.2336 152.077 57.2329C152.077 57.2323 152.078 57.2317 152.078 57.2311C152.079 57.2304 152.079 57.2298 152.08 57.2292C152.08 57.2286 152.081 57.2279 152.081 57.2273C152.082 57.2267 152.082 57.2261 152.083 57.2255C152.083 57.2249 152.084 57.2242 152.084 57.2236C152.085 57.223 152.086 57.2224 152.086 57.2218C152.087 57.2212 152.087 57.2205 152.088 57.2199C152.088 57.2193 152.089 57.2187 152.089 57.2181C152.09 57.2175 152.09 57.2169 152.091 57.2163C152.091 57.2157 152.092 57.2151 152.092 57.2145C152.093 57.2139 152.093 57.2133 152.094 57.2127C152.094 57.212 152.095 57.2114 152.095 57.2108C152.096 57.2102 152.096 57.2096 152.097 57.2091C152.097 57.2085 152.098 57.2079 152.098 57.2073C152.099 57.2067 152.099 57.2061 152.1 57.2055C152.1 57.2049 152.101 57.2043 152.101 57.2037C152.102 57.2031 152.102 57.2025 152.103 57.2019C152.103 57.2013 152.104 57.2008 152.104 57.2002C152.105 57.1996 152.105 57.199 152.106 57.1984C152.106 57.1978 152.107 57.1972 152.107 57.1967C152.108 57.1961 152.108 57.1955 152.109 57.1949C152.109 57.1943 152.11 57.1938 152.11 57.1932C152.111 57.1926 152.111 57.192 152.112 57.1915C152.112 57.1909 152.113 57.1903 152.113 57.1897C152.114 57.1892 152.114 57.1886 152.114 57.188C152.115 57.1874 152.115 57.1869 152.116 57.1863C152.116 57.1857 152.117 57.1852 152.117 57.1846C152.118 57.184 152.118 57.1835 152.119 57.1829C152.119 57.1823 152.12 57.1818 152.12 57.1812C152.121 57.1807 152.121 57.1801 152.122 57.1795C152.122 57.179 152.123 57.1784 152.123 57.1779C152.123 57.1773 152.124 57.1767 152.124 57.1762C152.125 57.1756 152.125 57.1751 152.126 57.1745C152.126 57.174 152.127 57.1734 152.127 57.1729C152.128 57.1723 152.128 57.1718 152.129 57.1712C152.129 57.1707 152.13 57.1701 152.13 57.1696C152.13 57.169 152.131 57.1685 152.131 57.168C152.132 57.1674 152.132 57.1669 152.133 57.1663C152.133 57.1658 152.134 57.1652 152.134 57.1647C152.135 57.1642 152.135 57.1636 152.135 57.1631C152.136 57.1626 152.136 57.162 152.137 57.1615C152.137 57.161 152.138 57.1604 152.138 57.1599C152.139 57.1594 152.139 57.1588 152.14 57.1583C152.14 57.1578 152.14 57.1572 152.141 57.1567C152.141 57.1562 152.142 57.1557 152.142 57.1551C152.143 57.1546 152.143 57.1541 152.143 57.1536C152.144 57.153 152.144 57.1525 152.145 57.152C152.145 57.1515 152.146 57.1509 152.146 57.1504C152.147 57.1499 152.147 57.1494 152.147 57.1489C152.148 57.1484 152.148 57.1478 152.149 57.1473C152.149 57.1468 152.15 57.1463 152.15 57.1458C152.15 57.1453 152.151 57.1448 152.151 57.1443C152.152 57.1437 152.152 57.1432 152.153 57.1427C152.153 57.1422 152.153 57.1417 152.154 57.1412C152.154 57.1407 152.155 57.1402 152.155 57.1397C152.156 57.1392 152.156 57.1387 152.156 57.1382C152.157 57.1377 152.157 57.1372 152.158 57.1367C152.158 57.1362 152.159 57.1357 152.159 57.1352C152.159 57.1347 152.16 57.1342 152.16 57.1337C152.161 57.1332 152.161 57.1327 152.161 57.1322C152.162 57.1318 152.162 57.1313 152.163 57.1308C152.163 57.1303 152.164 57.1298 152.164 57.1293C152.164 57.1288 152.165 57.1283 152.165 57.1279C152.166 57.1274 152.166 57.1269 152.166 57.1264C152.167 57.1259 152.167 57.1254 152.168 57.125C152.168 57.1245 152.168 57.124 152.169 57.1235C152.169 57.123 152.17 57.1226 152.17 57.1221C152.17 57.1216 152.171 57.1211 152.171 57.1207C152.172 57.1202 152.172 57.1197 152.172 57.1192C152.173 57.1188 152.173 57.1183 152.174 57.1178C152.174 57.1174 152.174 57.1169 152.175 57.1164C152.175 57.116 152.176 57.1155 152.176 57.115C152.176 57.1146 152.177 57.1141 152.177 57.1136C152.177 57.1132 152.178 57.1127 152.178 57.1123C152.179 57.1118 152.179 57.1113 152.179 57.1109C152.18 57.1104 152.18 57.11 152.181 57.1095C152.181 57.1091 152.181 57.1086 152.182 57.1082C152.182 57.1077 152.182 57.1073 152.183 57.1068C152.183 57.1064 152.184 57.1059 152.184 57.1055C152.184 57.105 152.185 57.1046 152.185 57.1041C152.186 57.1037 152.186 57.1032 152.186 57.1028C152.187 57.1023 152.187 57.1019 152.187 57.1014C152.188 57.101 152.188 57.1006 152.188 57.1001C152.189 57.0997 152.189 57.0993 152.19 57.0988C152.19 57.0984 152.19 57.0979 152.191 57.0975C152.191 57.0971 152.191 57.0966 152.192 57.0962C152.192 57.0958 152.193 57.0953 152.193 57.0949C152.193 57.0945 152.194 57.094 152.194 57.0936C152.194 57.0932 152.195 57.0928 152.195 57.0923C152.195 57.0919 152.196 57.0915 152.196 57.0911C152.196 57.0906 152.197 57.0902 152.197 57.0898C152.198 57.0894 152.198 57.089 152.198 57.0885C152.199 57.0881 152.199 57.0877 152.199 57.0873C152.2 57.0869 152.2 57.0865 152.2 57.086C152.201 57.0856 152.201 57.0852 152.201 57.0848C152.202 57.0844 152.202 57.084 152.202 57.0836C152.203 57.0832 152.203 57.0827 152.203 57.0823C152.204 57.0819 152.204 57.0815 152.204 57.0811C152.205 57.0807 152.205 57.0803 152.206 57.0799C152.206 57.0795 152.206 57.0791 152.207 57.0787C152.207 57.0783 152.207 57.0779 152.208 57.0775C152.208 57.0771 152.208 57.0767 152.209 57.0763C152.209 57.0759 152.209 57.0755 152.21 57.0751C152.21 57.0747 152.21 57.0743 152.211 57.0739C152.211 57.0736 152.211 57.0732 152.212 57.0728C152.212 57.0724 152.212 57.072 152.213 57.0716C152.213 57.0712 152.213 57.0708 152.213 57.0704C152.214 57.0701 152.214 57.0697 152.214 57.0693C152.215 57.0689 152.215 57.0685 152.215 57.0682C152.216 57.0678 152.216 57.0674 152.216 57.067C152.217 57.0666 152.217 57.0663 152.217 57.0659C152.218 57.0655 152.218 57.0651 152.218 57.0648C152.219 57.0644 152.219 57.064 152.219 57.0636C152.22 57.0633 152.22 57.0629 152.22 57.0625C152.22 57.0622 152.221 57.0618 152.221 57.0614C152.221 57.0611 152.222 57.0607 152.222 57.0603C152.222 57.06 152.223 57.0596 152.223 57.0592C152.223 57.0589 152.224 57.0585 152.224 57.0582C152.224 57.0578 152.224 57.0574 152.225 57.0571C152.225 57.0567 152.225 57.0564 152.226 57.056C152.226 57.0556 152.226 57.0553 152.227 57.0549C152.227 57.0546 152.227 57.0542 152.227 57.0539C152.228 57.0535 152.228 57.0532 152.228 57.0528C152.229 57.0525 152.229 57.0521 152.229 57.0518C152.229 57.0514 152.23 57.0511 152.23 57.0508C152.23 57.0504 152.231 57.0501 152.231 57.0497C152.231 57.0494 152.232 57.049 152.232 57.0487C152.232 57.0484 152.232 57.048 152.233 57.0477C152.233 57.0474 152.233 57.047 152.233 57.0467C152.234 57.0463 152.234 57.046 152.234 57.0457C152.235 57.0453 152.235 57.045 152.235 57.0447C152.235 57.0444 152.236 57.044 152.236 57.0437C152.236 57.0434 152.237 57.043 152.237 57.0427C152.237 57.0424 152.237 57.0421 152.238 57.0417C152.238 57.0414 152.238 57.0411 152.238 57.0408C152.239 57.0404 152.239 57.0401 152.239 57.0398C152.24 57.0395 152.24 57.0392 152.24 57.0389C152.24 57.0385 152.241 57.0382 152.241 57.0379C152.241 57.0376 152.241 57.0373 152.242 57.037C152.242 57.0366 152.242 57.0363 152.242 57.036C152.243 57.0357 152.243 57.0354 152.243 57.0351C152.244 57.0348 152.244 57.0345 152.244 57.0342C152.244 57.0339 152.245 57.0336 152.245 57.0333C152.245 57.033 152.245 57.0327 152.246 57.0324C152.246 57.0321 152.246 57.0318 152.246 57.0315C152.247 57.0312 152.247 57.0309 152.247 57.0306C152.247 57.0303 152.248 57.03 152.248 57.0297C152.248 57.0294 152.248 57.0291 152.249 57.0288C152.249 57.0285 152.249 57.0282 152.249 57.0279C152.25 57.0276 152.25 57.0273 152.25 57.0271C152.25 57.0268 152.25 57.0265 152.251 57.0262C152.251 57.0259 152.251 57.0256 152.251 57.0253C152.252 57.0251 152.252 57.0248 152.252 57.0245C152.252 57.0242 152.253 57.0239 152.253 57.0237C152.253 57.0234 152.253 57.0231 152.254 57.0228C152.254 57.0226 152.254 57.0223 152.254 57.022C152.255 57.0217 152.255 57.0215 152.255 57.0212C152.255 57.0209 152.255 57.0206 152.256 57.0204C152.256 57.0201 152.256 57.0198 152.256 57.0196C152.257 57.0193 152.257 57.019 152.257 57.0188C152.257 57.0185 152.257 57.0182 152.258 57.018C152.258 57.0177 152.258 57.0175 152.258 57.0172C152.259 57.0169 152.259 57.0167 152.259 57.0164C152.259 57.0162 152.259 57.0159 152.26 57.0156C152.26 57.0154 152.26 57.0151 152.26 57.0149C152.26 57.0146 152.261 57.0144 152.261 57.0141C152.261 57.0139 152.261 57.0136 152.262 57.0134C152.262 57.0131 152.262 57.0129 152.262 57.0126C152.262 57.0124 152.263 57.0121 152.263 57.0119C152.263 57.0116 152.263 57.0114 152.263 57.0112C152.264 57.0109 152.264 57.0107 152.264 57.0104C152.264 57.0102 152.264 57.01 152.265 57.0097C152.265 57.0095 152.265 57.0092 152.265 57.009C152.265 57.0088 152.266 57.0085 152.266 57.0083C152.266 57.0081 152.266 57.0078 152.266 57.0076C152.267 57.0074 152.267 57.0071 152.267 57.0069C152.267 57.0067 152.267 57.0065 152.268 57.0062C152.268 57.006 152.268 57.0058 152.268 57.0056C152.268 57.0053 152.268 57.0051 152.269 57.0049C152.269 57.0047 152.269 57.0044 152.269 57.0042C152.269 57.004 152.27 57.0038 152.27 57.0036C152.27 57.0034 152.27 57.0031 152.27 57.0029C152.271 57.0027 152.271 57.0025 152.271 57.0023C152.271 57.0021 152.271 57.0019 152.271 57.0016C152.272 57.0014 152.272 57.0012 152.272 57.001C152.272 57.0008 152.272 57.0006 152.272 57.0004C152.273 57.0002 152.273 57 152.273 56.9998C152.273 56.9996 152.273 56.9994 152.273 56.9992C152.274 56.999 152.274 56.9988 152.274 56.9986C152.274 56.9984 152.274 56.9982 152.275 56.998C152.275 56.9978 152.275 56.9976 152.275 56.9974C152.275 56.9972 152.275 56.997 152.275 56.9968C152.276 56.9966 152.276 56.9964 152.276 56.9962C152.276 56.996 152.276 56.9959 152.276 56.9957C152.277 56.9955 152.277 56.9953 152.277 56.9951C152.277 56.9949 152.277 56.9947 152.277 56.9946C152.278 56.9944 152.278 56.9942 152.278 56.994C152.278 56.9938 152.278 56.9936 152.278 56.9935C152.278 56.9933 152.279 56.9931 152.279 56.9929C152.279 56.9928 152.279 56.9926 152.279 56.9924C152.279 56.9922 152.279 56.9921 152.28 56.9919C152.28 56.9917 152.28 56.9915 152.28 56.9914C152.28 56.9912 152.28 56.991 152.28 56.9909C152.281 56.9907 152.281 56.9905 152.281 56.9904C152.281 56.9902 152.281 56.99 152.281 56.9899C152.281 56.9897 152.282 56.9895 152.282 56.9894C152.282 56.9892 152.282 56.9891 152.282 56.9889C152.282 56.9887 152.282 56.9886 152.283 56.9884C152.283 56.9883 152.283 56.9881 152.283 56.988C152.283 56.9878 152.283 56.9877 152.283 56.9875C152.283 56.9874 152.284 56.9872 152.284 56.9871C152.284 56.9869 152.284 56.9868 152.284 56.9866C152.284 56.9865 152.284 56.9863 152.284 56.9862C152.285 56.986 152.285 56.9859 152.285 56.9857C152.285 56.9856 152.285 56.9855 152.285 56.9853C152.285 56.9852 152.285 56.985 152.286 56.9849C152.286 56.9848 152.286 56.9846 152.286 56.9845C152.286 56.9844 152.286 56.9842 152.286 56.9841C152.286 56.984 152.286 56.9838 152.287 56.9837C152.287 56.9836 152.287 56.9834 152.287 56.9833C152.287 56.9832 152.287 56.983 152.287 56.9829C152.287 56.9828 152.287 56.9827 152.288 56.9825C152.288 56.9824 152.288 56.9823 152.288 56.9822C152.288 56.982 152.288 56.9819 152.288 56.9818C152.288 56.9817 152.288 56.9816 152.288 56.9814C152.289 56.9813 152.289 56.9812 152.289 56.9811C152.289 56.981 152.289 56.9809 152.289 56.9808C152.289 56.9806 152.289 56.9805 152.289 56.9804C152.289 56.9803 152.289 56.9802 152.29 56.9801C152.29 56.98 152.29 56.9799 152.29 56.9798C152.29 56.9797 152.29 56.9796 152.29 56.9794C152.29 56.9793 152.29 56.9792 152.29 56.9791C152.29 56.979 152.291 56.9789 152.291 56.9788C152.291 56.9787 152.291 56.9786 152.291 56.9785C152.291 56.9784 152.291 56.9783 152.291 56.9783C152.291 56.9782 152.291 56.9781 152.291 56.978C152.291 56.9779 152.292 56.9778 152.292 56.9777C152.292 56.9776 152.292 56.9775 152.292 56.9774C152.292 56.9773 152.292 56.9773 152.292 56.9772C152.292 56.9771 152.292 56.977 152.292 56.9769C152.292 56.9768 152.292 56.9767 152.292 56.9767C152.293 56.9766 152.293 56.9765 152.293 56.9764C152.293 56.9763 152.293 56.9763 152.293 56.9762C152.293 56.9761 152.293 56.976 152.293 56.976C152.293 56.9759 152.293 56.9758 152.293 56.9757C152.293 56.9757 152.293 56.9756 152.293 56.9755C152.293 56.9755 152.294 56.9754 152.294 56.9753C152.294 56.9753 152.294 56.9752 152.294 56.9751C152.294 56.9751 152.294 56.975 152.294 56.9749C152.294 56.9749 152.294 56.9748 152.294 56.9747C152.294 56.9747 152.294 56.9746 152.294 56.9746C152.294 56.9745 152.294 56.9744 152.294 56.9744C152.294 56.9743 152.294 56.9743 152.295 56.9742C152.295 56.9742 152.295 56.9741 152.295 56.9741C152.295 56.974 152.295 56.974 152.295 56.9739C152.295 56.9739 152.295 56.9738 152.295 56.9738C152.295 56.9737 152.295 56.9737 152.295 56.9736C152.295 56.9736 152.295 56.9735 152.295 56.9735C152.295 56.9734 152.295 56.9734 152.295 56.9734C152.295 56.9733 152.295 56.9733 152.295 56.9732C152.295 56.9732 152.295 56.9732 152.295 56.9731C152.295 56.9731 152.295 56.9731 152.296 56.973C152.296 56.973 152.296 56.973 152.296 56.9729C152.296 56.9729 152.296 56.9729 152.296 56.9728C152.296 56.9728 152.296 56.9728 152.296 56.9727C152.296 56.9727 152.296 56.9727 152.296 56.9727C152.296 56.9726 152.296 56.9726 152.296 56.9726C152.296 56.9726 152.296 56.9726 152.296 56.9725C152.296 56.9725 152.296 56.9725 152.296 56.9725C152.296 56.9725 152.296 56.9724 152.296 56.9724C152.296 56.9724 152.296 56.9724 152.296 56.9724C152.296 56.9724 152.296 56.9724 152.296 56.9723C152.296 56.9723 152.296 56.9723 152.296 56.9723C152.296 56.9723 152.296 56.9723 152.296 56.9723C152.296 56.9723 152.296 56.9723 152.296 56.9723C152.296 56.9723 152.296 56.9723 152.296 56.9723C152.296 56.9723 152.296 56.9723 151.531 56.3281ZM150.083 56.5032C149.719 56.8587 149.321 57.1399 148.888 57.3521L149.768 59.1479C150.398 58.8393 150.969 58.433 151.48 57.9343L150.083 56.5032ZM148.888 57.3521C148.448 57.5678 147.78 57.7976 146.851 58.0299L147.336 59.9701C148.324 59.7232 149.146 59.453 149.768 59.1479L148.888 57.3521ZM146.861 58.0274C146.004 58.2324 144.901 58.3438 143.531 58.3438V60.3438C144.995 60.3438 146.267 60.226 147.326 59.9726L146.861 58.0274ZM143.531 58C144.544 58 145.453 57.9789 146.256 57.9361L146.15 55.9389C145.39 55.9794 144.518 56 143.531 56V58ZM146.27 57.9353C147.098 57.8801 147.851 57.7682 148.52 57.5921L148.011 55.6579C147.493 55.7943 146.871 55.8908 146.137 55.9397L146.27 57.9353ZM148.52 57.5921C149.212 57.41 149.834 57.1326 150.362 56.74L149.169 55.135C148.884 55.3466 148.507 55.5275 148.011 55.6579L148.52 57.5921ZM150.366 56.7375C150.916 56.3246 151.349 55.7901 151.672 55.1576L149.89 54.2487C149.692 54.637 149.448 54.9254 149.166 55.1375L150.366 56.7375ZM151.672 55.1576C151.994 54.5267 152.206 53.7871 152.332 52.9635L150.355 52.6615C150.252 53.3379 150.089 53.8587 149.89 54.2487L151.672 55.1576ZM152.331 52.9747C152.467 52.1449 152.531 51.1762 152.531 50.0781H150.531C150.531 51.1051 150.471 51.9593 150.357 52.6503L152.331 52.9747ZM152.531 50.0781C152.531 48.9404 152.467 47.946 152.331 47.1056L150.357 47.4257C150.47 48.1269 150.531 49.0075 150.531 50.0781H152.531ZM152.333 47.1205C152.208 46.269 151.997 45.5082 151.676 44.8653L149.887 45.7597C150.086 46.1585 150.25 46.6998 150.354 47.4107L152.333 47.1205ZM151.679 44.8723C151.358 44.2165 150.92 43.6644 150.353 43.2529L149.179 44.8721C149.444 45.0648 149.684 45.346 149.883 45.7527L151.679 44.8723ZM150.362 43.26C149.834 42.8674 149.212 42.59 148.52 42.4079L148.011 44.3421C148.507 44.4725 148.884 44.6534 149.169 44.865L150.362 43.26ZM148.536 42.4122C147.855 42.2212 147.092 42.1085 146.256 42.0639L146.15 44.0611C146.876 44.0998 147.488 44.1955 147.995 44.3378L148.536 42.4122ZM146.256 42.0639C145.453 42.0211 144.544 42 143.531 42V44C144.518 44 145.39 44.0206 146.15 44.0611L146.256 42.0639ZM143.531 42C142.346 42 141.305 42.037 140.415 42.113L140.585 44.1058C141.403 44.0359 142.384 44 143.531 44V42ZM140.414 42.1131C139.521 42.1902 138.726 42.3306 138.043 42.5464L138.645 44.4536C139.149 44.2944 139.791 44.1744 140.586 44.1057L140.414 42.1131ZM138.043 42.5464C137.346 42.7664 136.729 43.0873 136.226 43.5338L137.555 45.0287C137.803 44.8085 138.154 44.6086 138.645 44.4536L138.043 42.5464ZM136.216 43.5432C135.726 43.9911 135.359 44.5495 135.103 45.1911L136.96 45.9339C137.12 45.5338 137.326 45.2381 137.565 45.0193L136.216 43.5432ZM135.096 45.2073C134.859 45.833 134.709 46.5548 134.63 47.355L136.62 47.5512C136.687 46.8723 136.808 46.3337 136.966 45.9177L135.096 45.2073ZM134.629 47.3677C134.563 48.1332 134.531 49.0223 134.531 50.0312H136.531C136.531 49.061 136.562 48.2314 136.621 47.5385L134.629 47.3677ZM134.531 50.0312C134.531 51.0301 134.563 51.914 134.629 52.6792L136.621 52.5083C136.562 51.8152 136.531 50.9908 136.531 50.0312H134.531ZM134.63 52.6947C134.709 53.4762 134.86 54.1857 135.096 54.8083L136.966 54.0979C136.807 53.6789 136.686 53.1488 136.62 52.4928L134.63 52.6947ZM135.105 54.831C135.363 55.4626 135.73 56.0124 136.216 56.4568L137.565 54.9807C137.322 54.7584 137.116 54.4645 136.957 54.0752L135.105 54.831ZM136.226 56.4662C136.729 56.9127 137.346 57.2336 138.043 57.4536L138.645 55.5464C138.154 55.3914 137.803 55.1915 137.555 54.9713L136.226 56.4662ZM138.043 57.4536C138.726 57.6694 139.521 57.8098 140.414 57.8869L140.586 55.8943C139.791 55.8256 139.149 55.7056 138.645 55.5464L138.043 57.4536ZM140.415 57.887C141.305 57.963 142.346 58 143.531 58V56C142.384 56 141.403 55.9641 140.585 55.8942L140.415 57.887ZM158.625 45.2969L157.675 44.9856L158.625 45.2969ZM160.531 42.4219L159.902 41.6446L160.531 42.4219ZM163.938 40.9375L164.135 41.9178L164.142 41.9164L163.938 40.9375ZM174.125 40.9375L173.92 41.9164L173.927 41.9178L174.125 40.9375ZM177.531 42.4219L178.16 41.6446L177.531 42.4219ZM174.125 58.9062L174.33 59.8851L174.337 59.8836L174.125 58.9062ZM163.938 58.9062L163.726 59.8836L163.733 59.8851L163.938 58.9062ZM161.547 54.3906L160.61 54.7397L160.613 54.7477L160.616 54.7557L161.547 54.3906ZM166 56.8906L165.914 57.8869L165.915 57.887L166 56.8906ZM171.703 56.9375L171.756 57.9362L171.769 57.9353L171.703 56.9375ZM173.766 56.6094L173.495 55.6466L173.491 55.6479L173.766 56.6094ZM175.281 55.9062L175.868 56.7159L175.875 56.7111L175.881 56.7062L175.281 55.9062ZM176.281 54.6406L175.383 54.2005L175.38 54.2076L175.376 54.2148L176.281 54.6406ZM176.844 52.6875L175.856 52.5295L175.855 52.5405L176.844 52.6875ZM176.844 47.1406L175.855 47.2896L175.856 47.2973L175.857 47.305L176.844 47.1406ZM176.281 45.2344L175.383 45.6742L175.387 45.6816L175.39 45.6888L176.281 45.2344ZM175.281 44.0312L174.694 44.8409L174.701 44.8457L174.708 44.8505L175.281 44.0312ZM173.766 43.3594L173.507 44.3253L173.517 44.328L173.527 44.3305L173.766 43.3594ZM171.703 43.0625L171.65 44.0611L171.651 44.0611L171.703 43.0625ZM166.344 43.0625L166.291 42.0639L166.29 42.0639L166.344 43.0625ZM164.281 43.3594L164.524 44.3296L164.536 44.3264L164.281 43.3594ZM162.781 44.0312L163.355 44.8505L163.362 44.8457L163.368 44.8409L162.781 44.0312ZM161.766 45.2344L160.875 44.7799L160.871 44.7872L160.868 44.7945L161.766 45.2344ZM161.203 47.1406L160.216 46.9784L160.215 46.9896L161.203 47.1406ZM159.031 49.875C159.031 48.0938 159.224 46.6819 159.575 45.6082L157.675 44.9856C157.235 46.3285 157.031 47.9687 157.031 49.875H159.031ZM159.575 45.6082C159.919 44.5584 160.454 43.7711 161.16 43.1991L159.902 41.6446C158.859 42.4893 158.122 43.6187 157.675 44.9856L159.575 45.6082ZM161.16 43.1991C161.881 42.6157 162.856 42.1754 164.135 41.9178L163.74 39.9572C162.227 40.2621 160.931 40.8114 159.902 41.6446L161.16 43.1991ZM164.142 41.9164C165.45 41.6431 167.075 41.5 169.031 41.5V39.5C166.988 39.5 165.217 39.6486 163.733 39.9586L164.142 41.9164ZM169.031 41.5C170.988 41.5 172.613 41.6431 173.92 41.9164L174.33 39.9586C172.846 39.6486 171.075 39.5 169.031 39.5V41.5ZM173.927 41.9178C175.206 42.1754 176.181 42.6157 176.902 43.1991L178.16 41.6446C177.131 40.8114 175.836 40.2621 174.323 39.9572L173.927 41.9178ZM176.902 43.1991C177.609 43.7711 178.143 44.5584 178.487 45.6082L180.388 44.9856C179.94 43.6187 179.204 42.4893 178.16 41.6446L176.902 43.1991ZM178.487 45.6082C178.839 46.6819 179.031 48.0938 179.031 49.875H181.031C181.031 47.9687 180.828 46.3285 180.388 44.9856L178.487 45.6082ZM179.031 49.875C179.031 51.6558 178.839 53.0741 178.486 54.1598L180.389 54.7777C180.828 53.4259 181.031 51.7817 181.031 49.875H179.031ZM178.486 54.1598C178.142 55.2216 177.605 56.0202 176.897 56.6023L178.166 58.1477C179.207 57.2923 179.942 56.1534 180.389 54.7777L178.486 54.1598ZM176.897 56.6023C176.172 57.1972 175.194 57.6518 173.913 57.9289L174.337 59.8836C175.848 59.5565 177.14 58.9903 178.166 58.1477L176.897 56.6023ZM173.92 57.9274C172.613 58.2007 170.988 58.3438 169.031 58.3438V60.3438C171.075 60.3438 172.846 60.1952 174.33 59.8851L173.92 57.9274ZM169.031 58.3438C167.075 58.3438 165.45 58.2007 164.142 57.9274L163.733 59.8851C165.217 60.1952 166.988 60.3438 169.031 60.3438V58.3438ZM164.149 57.9289C162.869 57.6518 161.89 57.1972 161.166 56.6023L159.897 58.1477C160.922 58.9903 162.214 59.5565 163.726 59.8836L164.149 57.9289ZM161.166 56.6023C160.457 56.0202 159.921 55.2216 159.576 54.1598L157.674 54.7777C158.121 56.1534 158.855 57.2923 159.897 58.1477L161.166 56.6023ZM159.576 54.1598C159.223 53.0741 159.031 51.6558 159.031 49.875H157.031C157.031 51.7817 157.235 53.4259 157.674 54.7777L159.576 54.1598ZM160.031 49.875C160.031 50.8974 160.068 51.8014 160.145 52.5825L162.136 52.3863C162.067 51.6882 162.031 50.8526 162.031 49.875H160.031ZM160.145 52.5825C160.224 53.3829 160.374 54.1071 160.61 54.7397L162.484 54.0415C162.324 53.6116 162.203 53.065 162.136 52.3863L160.145 52.5825ZM160.616 54.7557C160.871 55.4071 161.238 55.9742 161.731 56.4255L163.081 54.9495C162.845 54.7341 162.639 54.4366 162.478 54.0255L160.616 54.7557ZM161.731 56.4255C162.223 56.8751 162.835 57.2022 163.528 57.4331L164.16 55.5357C163.665 55.3707 163.318 55.1666 163.081 54.9495L161.731 56.4255ZM163.528 57.4331C164.217 57.6628 165.017 57.8094 165.914 57.8869L166.086 55.8943C165.295 55.826 164.658 55.7018 164.16 55.5357L163.528 57.4331ZM165.915 57.887C166.805 57.963 167.846 58 169.031 58V56C167.884 56 166.903 55.9641 166.085 55.8942L165.915 57.887ZM169.031 58C170.044 58 170.953 57.9789 171.756 57.9361L171.65 55.9389C170.89 55.9794 170.018 56 169.031 56V58ZM171.769 57.9353C172.611 57.8799 173.372 57.7619 174.04 57.5709L173.491 55.6479C172.993 55.7901 172.379 55.8909 171.637 55.9397L171.769 57.9353ZM174.036 57.5722C174.721 57.3797 175.339 57.0996 175.868 56.7159L174.694 55.0966C174.39 55.3171 173.997 55.5057 173.495 55.6466L174.036 57.5722ZM175.881 56.7062C176.444 56.2839 176.876 55.7264 177.186 55.0664L175.376 54.2148C175.187 54.6174 174.951 54.9036 174.681 55.1063L175.881 56.7062ZM177.179 55.0808C177.497 54.4331 177.708 53.6769 177.833 52.8345L175.855 52.5405C175.751 53.2398 175.587 53.7856 175.383 54.2005L177.179 55.0808ZM177.831 52.8455C177.967 51.9965 178.031 51.0032 178.031 49.875H176.031C176.031 50.9343 175.97 51.816 175.856 52.5295L177.831 52.8455ZM178.031 49.875C178.031 48.7675 177.967 47.7976 177.83 46.9762L175.857 47.305C175.97 47.9837 176.031 48.8367 176.031 49.875H178.031ZM177.833 46.9916C177.707 46.1588 177.495 45.4127 177.172 44.7799L175.39 45.6888C175.588 46.0769 175.751 46.6016 175.855 47.2896L177.833 46.9916ZM177.179 44.7945C176.864 44.1504 176.426 43.6116 175.855 43.212L174.708 44.8505C174.97 45.0342 175.199 45.2975 175.383 45.6742L177.179 44.7945ZM175.868 43.2216C175.329 42.8309 174.7 42.5592 174.004 42.3882L173.527 44.3305C174.018 44.4512 174.4 44.6275 174.694 44.8409L175.868 43.2216ZM174.024 42.3934C173.356 42.2145 172.597 42.1081 171.756 42.0639L171.651 44.0611C172.393 44.1002 173.008 44.1917 173.507 44.3253L174.024 42.3934ZM171.756 42.0639C170.953 42.0211 170.044 42 169.031 42V44C170.018 44 170.89 44.0206 171.65 44.0611L171.756 42.0639ZM169.031 42C168.018 42 167.104 42.0211 166.291 42.0639L166.396 44.0611C167.167 44.0206 168.044 44 169.031 44V42ZM166.29 42.0639C165.459 42.1083 164.701 42.2148 164.027 42.3923L164.536 44.3264C165.049 44.1915 165.666 44.1001 166.397 44.0611L166.29 42.0639ZM164.039 42.3892C163.352 42.5609 162.73 42.833 162.194 43.2216L163.368 44.8409C163.666 44.6253 164.044 44.4495 164.524 44.3295L164.039 42.3892ZM162.208 43.212C161.641 43.6088 161.2 44.1425 160.875 44.7799L162.656 45.6888C162.852 45.3054 163.088 45.037 163.355 44.8505L162.208 43.212ZM160.868 44.7945C160.562 45.4175 160.352 46.1534 160.216 46.9784L162.19 47.3028C162.304 46.607 162.469 46.072 162.664 45.6742L160.868 44.7945ZM160.215 46.9896C160.09 47.8053 160.031 48.7704 160.031 49.875H162.031C162.031 48.8337 162.087 47.9759 162.192 47.2917L160.215 46.9896ZM183.531 35V34H182.531V35H183.531ZM186.531 35H187.531V34H186.531V35ZM186.531 48.125H185.531V49.125H186.531V48.125ZM187.531 48.125V49.125H187.827L188.075 48.9643L187.531 48.125ZM198.531 41V40H198.236L197.988 40.1607L198.531 41ZM203.031 41L203.58 41.8358L206.375 40H203.031V41ZM190.281 49.375L189.732 48.5392L188.523 49.3336L189.694 50.1841L190.281 49.375ZM203.531 59V60H206.609L204.119 58.1909L203.531 59ZM199.031 59L198.431 59.8L198.698 60H199.031V59ZM187.531 50.375L188.131 49.575L187.865 49.375H187.531V50.375ZM186.531 50.375V49.375H185.531V50.375H186.531ZM186.531 59V60H187.531V59H186.531ZM183.531 59H182.531V60H183.531V59ZM183.531 36H186.531V34H183.531V36ZM185.531 35V48.125H187.531V35H185.531ZM186.531 49.125H187.531V47.125H186.531V49.125ZM188.075 48.9643L199.075 41.8393L197.988 40.1607L186.988 47.2857L188.075 48.9643ZM198.531 42H203.031V40H198.531V42ZM202.482 40.1642L189.732 48.5392L190.83 50.2108L203.58 41.8358L202.482 40.1642ZM189.694 50.1841L202.944 59.8091L204.119 58.1909L190.869 48.5659L189.694 50.1841ZM203.531 58H199.031V60H203.531V58ZM199.631 58.2L188.131 49.575L186.931 51.175L198.431 59.8L199.631 58.2ZM187.531 49.375H186.531V51.375H187.531V49.375ZM185.531 50.375V59H187.531V50.375H185.531ZM186.531 58H183.531V60H186.531V58ZM184.531 59V35H182.531V59H184.531ZM208.547 41H209.547V40H208.547V41ZM208.797 53.8281L207.819 54.0395L207.82 54.0422L208.797 53.8281ZM219.531 56.6406L219.307 55.6661L219.305 55.6666L219.531 56.6406ZM223.203 54.0469L222.266 53.6975L222.264 53.7045L222.261 53.7116L223.203 54.0469ZM223.547 41V40H222.547V41H223.547ZM226.547 41H227.547V40H226.547V41ZM226.547 59V60H227.547V59H226.547ZM223.547 59H222.547V60H223.547V59ZM223.547 56H224.547L222.636 55.5884L223.547 56ZM222.812 57.0781L223.559 57.7438L223.568 57.7338L222.812 57.0781ZM221.266 58.1562L220.829 57.2564L221.266 58.1562ZM218.594 59L218.389 58.0213L218.387 58.0217L218.594 59ZM211.078 59.0938L211.248 58.1082L211.239 58.1068L211.078 59.0938ZM208.625 58.3906L208.189 59.2906L208.197 59.2947L208.206 59.2986L208.625 58.3906ZM206.078 55.5781L205.134 55.9085L205.136 55.9134L206.078 55.5781ZM205.531 51L204.531 50.9984V51H205.531ZM205.547 41V40H204.548L204.547 40.9984L205.547 41ZM207.547 41V51H209.547V41H207.547ZM207.547 51C207.547 52.159 207.633 53.1773 207.819 54.0395L209.774 53.6168C209.627 52.9373 209.547 52.0702 209.547 51H207.547ZM207.82 54.0422C208.024 54.9723 208.446 55.7762 209.113 56.4014L210.481 54.9423C210.148 54.6301 209.903 54.2047 209.774 53.614L207.82 54.0422ZM209.113 56.4014C209.782 57.0286 210.672 57.429 211.7 57.6626L212.143 55.7124C211.338 55.5294 210.812 55.2526 210.481 54.9423L209.113 56.4014ZM211.7 57.6626C212.719 57.8943 214.011 58 215.547 58V56C214.083 56 212.958 55.8974 212.143 55.7124L211.7 57.6626ZM215.547 58C217.212 58 218.624 57.8781 219.758 57.6147L219.305 55.6666C218.376 55.8823 217.132 56 215.547 56V58ZM219.755 57.6152C220.875 57.3576 221.836 56.9766 222.578 56.4301L221.391 54.8199C220.945 55.1484 220.271 55.4445 219.307 55.6661L219.755 57.6152ZM222.578 56.4301C223.31 55.8902 223.851 55.2085 224.145 54.3822L222.261 53.7116C222.118 54.1144 221.846 54.4848 221.391 54.8199L222.578 56.4301ZM224.14 54.3963C224.416 53.6551 224.547 52.8524 224.547 52H222.547C222.547 52.6476 222.448 53.2095 222.266 53.6975L224.14 54.3963ZM224.547 52V41H222.547V52H224.547ZM223.547 42H226.547V40H223.547V42ZM225.547 41V59H227.547V41H225.547ZM226.547 58H223.547V60H226.547V58ZM224.547 59V56H222.547V59H224.547ZM222.636 55.5884C222.544 55.7914 222.365 56.0683 222.057 56.4224L223.568 57.7338C223.948 57.2962 224.258 56.8545 224.458 56.4116L222.636 55.5884ZM222.066 56.4125C221.841 56.6653 221.451 56.9553 220.829 57.2564L221.702 59.0561C222.456 58.6906 223.097 58.2618 223.559 57.7437L222.066 56.4125ZM220.829 57.2564C220.241 57.5418 219.436 57.8019 218.389 58.0213L218.799 59.9787C219.939 59.7398 220.916 59.4373 221.702 59.0561L220.829 57.2564ZM218.387 58.0217C217.395 58.2315 216.12 58.3438 214.547 58.3438V60.3438C216.202 60.3438 217.626 60.2268 218.801 59.9783L218.387 58.0217ZM214.547 58.3438C213.241 58.3438 212.144 58.2625 211.248 58.1082L210.909 60.0793C211.949 60.2583 213.165 60.3438 214.547 60.3438V58.3438ZM211.239 58.1068C210.345 57.961 209.619 57.7479 209.044 57.4827L208.206 59.2986C208.986 59.6584 209.895 59.914 210.917 60.0807L211.239 58.1068ZM209.061 57.4906C208.493 57.2156 208.073 56.8965 207.771 56.5482L206.26 57.8581C206.771 58.4472 207.424 58.9198 208.189 59.2906L209.061 57.4906ZM207.771 56.5482C207.451 56.1783 207.199 55.7463 207.02 55.2428L205.136 55.9134C205.394 56.6391 205.768 57.2905 206.26 57.8581L207.771 56.5482ZM207.022 55.2478C206.834 54.7093 206.702 54.0968 206.636 53.4045L204.645 53.5955C204.725 54.424 204.885 55.197 205.134 55.9085L207.022 55.2478ZM206.636 53.4045C206.567 52.681 206.531 51.8801 206.531 51H204.531C204.531 51.9324 204.569 52.7981 204.645 53.5955L206.636 53.4045ZM206.531 51.0016L206.547 41.0016L204.547 40.9984L204.531 50.9984L206.531 51.0016ZM205.547 42H208.547V40H205.547V42ZM234.562 37L235.398 36.4505L233.562 33.6596V37H234.562ZM234.562 59V60H235.562V59H234.562ZM231.562 59H230.562V60H231.562V59ZM231.562 35V34H230.562V35H231.562ZM236.562 35L237.395 34.4457L237.098 34H236.562V35ZM250.547 56L249.715 56.5543L250.547 57.8042L251.379 56.5543L250.547 56ZM264.531 35V34H263.996L263.699 34.4457L264.531 35ZM269.312 35H270.312V34H269.312V35ZM269.312 59V60H270.312V59H269.312ZM266.312 59H265.312V60H266.312V59ZM266.312 37.3281H267.312V33.9871L265.477 36.7787L266.312 37.3281ZM252.062 59V60H252.602L252.898 59.5494L252.062 59ZM249.031 59L248.196 59.5495L248.492 60H249.031V59ZM233.562 37V59H235.562V37H233.562ZM234.562 58H231.562V60H234.562V58ZM232.562 59V35H230.562V59H232.562ZM231.562 36H236.562V34H231.562V36ZM235.73 35.5543L249.715 56.5543L251.379 55.4457L237.395 34.4457L235.73 35.5543ZM251.379 56.5543L265.364 35.5543L263.699 34.4457L249.715 55.4457L251.379 56.5543ZM264.531 36H269.312V34H264.531V36ZM268.312 35V59H270.312V35H268.312ZM269.312 58H266.312V60H269.312V58ZM267.312 59V37.3281H265.312V59H267.312ZM265.477 36.7787L251.227 58.4506L252.898 59.5494L267.148 37.8775L265.477 36.7787ZM252.062 58H249.031V60H252.062V58ZM249.867 58.4505L235.398 36.4505L233.727 37.5495L248.196 59.5495L249.867 58.4505ZM291.203 46.3438L290.523 45.6109L289.72 46.3564L290.535 47.0881L291.203 46.3438ZM305.312 59V60H307.925L305.98 58.2556L305.312 59ZM301.062 59L300.395 59.7445L300.68 60H301.062V59ZM289.109 48.2812L289.777 47.5367L289.098 46.9276L288.429 47.5484L289.109 48.2812ZM277.562 59V60H277.955L278.243 59.7329L277.562 59ZM273.312 59L272.632 58.2669L270.764 60H273.312V59ZM286.953 46.3438L287.633 47.0768L288.437 46.3314L287.621 45.5995L286.953 46.3438ZM274.312 35V34H271.701L273.645 35.7443L274.312 35ZM278.562 35L279.231 34.2562L278.946 34H278.562V35ZM289.031 44.4062L288.363 45.1501L289.042 45.7603L289.711 45.1394L289.031 44.4062ZM299.172 35V34H298.779L298.492 34.2668L299.172 35ZM303.422 35L304.102 35.7329L305.969 34H303.422V35ZM290.535 47.0881L304.645 59.7444L305.98 58.2556L291.871 45.5994L290.535 47.0881ZM305.312 58H301.062V60H305.312V58ZM301.73 58.2555L289.777 47.5367L288.442 49.0258L300.395 59.7445L301.73 58.2555ZM288.429 47.5484L276.882 58.2671L278.243 59.7329L289.79 49.0141L288.429 47.5484ZM277.562 58H273.312V60H277.562V58ZM273.993 59.7331L287.633 47.0768L286.273 45.6107L272.632 58.2669L273.993 59.7331ZM287.621 45.5995L274.98 34.2557L273.645 35.7443L286.285 47.088L287.621 45.5995ZM274.312 36H278.562V34H274.312V36ZM277.894 35.7438L288.363 45.1501L289.7 43.6624L279.231 34.2562L277.894 35.7438ZM289.711 45.1394L299.852 35.7332L298.492 34.2668L288.351 43.6731L289.711 45.1394ZM299.172 36H303.422V34H299.172V36ZM302.741 34.2671L290.523 45.6109L291.884 47.0766L304.102 35.7329L302.741 34.2671Z" fill="#9C0EA8"/>
</g>
<defs>
<filter id="filter0_d_104_5" x="73" y="34.5" width="236.312" height="33.0625" filterUnits="userSpaceOnUse" color-interpolation-filters="sRGB">
<feFlood flood-opacity="0" result="BackgroundImageFix"/>
<feColorMatrix in="SourceAlpha" type="matrix" values="0 0 0 0 0 0 0 0 0 0 0 0 0 0 0 0 0 0 127 0" result="hardAlpha"/>
<feOffset dy="4"/>
<feGaussianBlur stdDeviation="2"/>
<feComposite in2="hardAlpha" operator="out"/>
<feColorMatrix type="matrix" values="0 0 0 0 0 0 0 0 0 0 0 0 0 0 0 0 0 0 0.25 0"/>
<feBlend mode="normal" in2="BackgroundImageFix" result="effect1_dropShadow_104_5"/>
<feBlend mode="normal" in="SourceGraphic" in2="effect1_dropShadow_104_5" result="shape"/>
</filter>
</defs>
</svg>
